<svg xmlns="http://www.w3.org/2000/svg" width="24" height="24" viewBox="0 0 24 24"><path d="M12.046 6.969c-2.705 0-4.906 2.261-4.906 5.041 0 2.78 2.201 5.042 4.906 5.042s4.906-2.262 4.906-5.042-2.201-5.041-4.906-5.041zm0 9.082c-2.154 0-3.906-1.813-3.906-4.042s1.752-4.041 3.906-4.041 3.906 1.812 3.906 4.041-1.752 4.042-3.906 4.042z"/><path d="M12.046 9.642c-1.275 0-2.312 1.062-2.312 2.368s1.037 2.367 2.312 2.367c1.274 0 2.312-1.062 2.312-2.367s-1.038-2.368-2.312-2.368zm0 3.735c-.724 0-1.312-.613-1.312-1.367s.588-1.368 1.312-1.368c.723 0 1.312.614 1.312 1.368s-.589 1.367-1.312 1.367z"/><path d="M23.555 11.788c-2.378-4.805-6.787-7.789-11.509-7.789-4.721 0-9.131 2.984-11.509 7.789a.5.5 0 0 0 0 .443c2.377 4.805 6.787 7.789 11.509 7.789s9.132-2.984 11.509-7.789a.5.5 0 0 0 0-.443zM12.046 19.02c-4.267 0-8.27-2.68-10.5-7.011 2.231-4.331 6.234-7.011 10.5-7.011 4.267 0 8.27 2.68 10.5 7.011-2.231 4.332-6.234 7.011-10.5 7.011z"/></svg>
