<svg xmlns="http://www.w3.org/2000/svg" viewBox="0 0 512 512"><path d="M504 255.53C504.25 392.17 392.82 503.9 256.18 504a246.96 246.96 0 0 1-155.82-54.91 23.98 23.98 0 0 1-1.84-35.6l11.27-11.28c8.6-8.6 22.35-9.55 31.89-1.98A183.25 183.25 0 0 0 256 440c101.7 0 184-82.31 184-184 0-101.7-82.31-184-184-184a183.36 183.36 0 0 0-126.07 49.93l50.76 50.76c10.08 10.08 2.94 27.31-11.32 27.31H24a16 16 0 0 1-16-16V38.63c0-14.26 17.23-21.4 27.31-11.32L84.7 76.7A247.16 247.16 0 0 1 256 8c136.81 0 247.75 110.78 248 247.53zm-180.91 78.79l9.82-12.63a24 24 0 0 0-4.2-33.68L288 256.35V152a24 24 0 0 0-24-24h-16a24 24 0 0 0-24 24v135.65l65.4 50.88a24 24 0 0 0 33.69-4.21z"/></svg>
