<svg width="24" height="24" viewBox="0 0 24 24" fill="none" xmlns="http://www.w3.org/2000/svg">
<g clip-path="url(#clip0_311_332)">
<path d="M12.0042 5.83801C8.60119 5.83801 5.84619 8.59601 5.84619 11.996C5.84619 15.399 8.60419 18.154 12.0042 18.154C15.4072 18.154 18.1622 15.396 18.1622 11.996C18.1622 8.59301 15.4042 5.83801 12.0042 5.83801ZM12.0042 15.993C9.79519 15.993 8.00719 14.204 8.00719 11.996C8.00719 9.78801 9.79619 7.99901 12.0042 7.99901C14.2122 7.99901 16.0012 9.78801 16.0012 11.996C16.0022 14.204 14.2132 15.993 12.0042 15.993Z" fill="white"/>
<path d="M16.9482 0.0763632C14.7402 -0.0266368 9.27123 -0.0216368 7.06123 0.0763632C5.11923 0.167363 3.40623 0.636363 2.02523 2.01736C-0.282773 4.32536 0.0122273 7.43536 0.0122273 11.9964C0.0122273 16.6644 -0.247773 19.7024 2.02523 21.9754C4.34223 24.2914 7.49723 23.9884 12.0042 23.9884C16.6282 23.9884 18.2242 23.9914 19.8592 23.3584C22.0822 22.4954 23.7602 20.5084 23.9242 16.9394C24.0282 14.7304 24.0222 9.26236 23.9242 7.05236C23.7262 2.83936 21.4652 0.284363 16.9482 0.0763632ZM20.4432 20.4484C18.9302 21.9614 16.8312 21.8264 11.9752 21.8264C6.97523 21.8264 4.97023 21.9004 3.50723 20.4334C1.82223 18.7564 2.12723 16.0634 2.12723 11.9804C2.12723 6.45536 1.56023 2.47636 7.10523 2.19236C8.37923 2.14736 8.75423 2.13236 11.9612 2.13236L12.0062 2.16236C17.3352 2.16236 21.5162 1.60436 21.7672 7.14836C21.8242 8.41336 21.8372 8.79336 21.8372 11.9954C21.8362 16.9374 21.9302 18.9544 20.4432 20.4484Z" fill="white"/>
<path d="M18.4058 7.03425C19.2005 7.03425 19.8448 6.38999 19.8448 5.59525C19.8448 4.80051 19.2005 4.15625 18.4058 4.15625C17.6111 4.15625 16.9668 4.80051 16.9668 5.59525C16.9668 6.38999 17.6111 7.03425 18.4058 7.03425Z" fill="white"/>
</g>
<defs>
<clipPath id="clip0_311_332">
<rect width="24" height="24" fill="white"/>
</clipPath>
</defs>
</svg>
