<svg xmlns="http://www.w3.org/2000/svg" viewBox="0 0 70 32"><path d="M69.1 17.22l.4 9.1c-.69.3-3.28 1.68-4.26 1.68h-4.79v-.65c-.54.43-1.55.65-2.46.65H42.93v-2.46c0-.35-.05-.35-.34-.35h-.26V28h-4.96v-2.92c-.83.4-1.75.4-2.58.4h-.54V28H28.2l-1.44-1.65L25.18 28h-9.72V17.22h9.9l1.4 1.66 1.55-1.66h6.65c.78 0 2.04.12 2.58.66v-.66h5.94c.6 0 1.75.12 2.52.66v-.66h8.95v.66a3.78 3.78 0 0 1 2.26-.66h4.99v.66a4.08 4.08 0 0 1 2.32-.66h4.58zm-34.2 6.65c1.58 0 3.19-.43 3.19-2.58 0-2.1-1.64-2.52-3.07-2.52h-5.88l-2.38 2.52-2.24-2.52H17.1v7.67h7.31l2.35-2.51 2.27 2.5h3.55v-2.56h2.33zm11.1-.31a1.9 1.9 0 0 0-.95-.66 2.1 2.1 0 0 0 1.32-2.04c0-.89-.31-1.38-.91-1.72a4.82 4.82 0 0 0-2.27-.37h-4.21v7.67h1.86v-2.8h1.98c.66 0 1.03.06 1.32.34.31.38.31 1.04.31 1.55v.9h1.84v-1.47c0-.69-.06-1.03-.29-1.4zm7.57-3.19v-1.6h-6.14v7.67h6.14v-1.56h-4.33v-1.55h4.24v-1.55h-4.24v-1.4h4.33zm4.67 6.07c1.87 0 2.93-.76 2.93-2.4 0-.77-.23-1.26-.54-1.66-.46-.37-1.12-.6-2.16-.6h-1c-.26 0-.49-.06-.72-.12a.57.57 0 0 1-.37-.54c0-.26.06-.43.29-.6.14-.12.37-.12.71-.12h3.39v-1.63H57.1c-1.98 0-2.64 1.2-2.64 2.3 0 2.43 2.15 2.31 3.84 2.37.35 0 .55.06.66.17.12.1.23.32.23.55 0 .2-.11.37-.23.49a1.2 1.2 0 0 1-.72.17H54.7v1.62h3.55zm7.2 0c1.87 0 2.93-.76 2.93-2.4 0-.77-.23-1.26-.55-1.66-.46-.37-1.12-.6-2.15-.6h-1c-.26 0-.49-.06-.72-.12a.57.57 0 0 1-.37-.54c0-.26.11-.43.28-.6.15-.12.38-.12.72-.12h3.38v-1.63H64.3c-1.92 0-2.64 1.2-2.64 2.3 0 2.43 2.16 2.31 3.85 2.37.34 0 .54.06.66.18.11.08.23.31.23.54 0 .2-.12.37-.23.49s-.38.17-.72.17h-3.56v1.62h3.56zm-21.47-5.92c.23.11.37.34.37.66 0 .34-.14.6-.37.77-.3.12-.55.12-.9.12l-2.23.05v-1.75h2.24c.34 0 .66 0 .89.15zM36.1 8.65c-.29.17-.55.17-.92.17h-2.27v-1.7h2.27c.32 0 .69 0 .92.12.23.14.34.37.34.72 0 .31-.11.6-.34.69zm14.68-1.81l1.26 3.04h-2.52zM30.77 25.79l-2.83-3.18 2.83-3.01v6.2zm4.25-5.42c.66 0 1.09.26 1.09.92s-.43 1.03-1.1 1.03h-2.43v-1.95h2.44zM5.77 9.87l1.3-3.03 1.26 3.04H5.77zm13.14 10.5h4.61l2.04 2.24-2.1 2.26h-4.55v-1.54h4.07v-1.55H18.9v-1.4zm.17-7l-.55 1.38H15.3l-.54-1.32v1.32H8.52L7.86 13H6.3l-.72 1.75H0L2.39 9.1 4.62 4h4.8l.65 1.26V4h5.6l1.26 2.72L18.16 4h17.83c.84 0 1.55.14 2.1.6V4h4.9v.6c.8-.46 1.86-.6 3.07-.6h7.08l.66 1.26V4h5.22l.77 1.26V4h5.1v10.75h-5.16l-1-1.63v1.63h-6.42L51.59 13h-1.58l-.71 1.75h-3.36c-1.32 0-2.3-.31-2.95-.66v.66h-7.97V12.3c0-.35-.06-.4-.29-.4h-.26v2.86h-15.4v-1.38zm24.28-6.96c-.83.83-.97 1.86-1 3.01 0 1.38.34 2.27.95 2.92.66.66 1.8.86 2.7.86h2.14l.72-1.69h3.84l.72 1.7h3.72V7.43l3.47 5.76h2.64V5.52h-1.89v5.33l-3.24-5.33H55.3v7.25l-3.1-7.25h-2.72l-2.64 6.05H46c-.49 0-1-.11-1.26-.37-.34-.4-.49-1-.49-1.84 0-.8.15-1.4.49-1.75.37-.31.77-.43 1.43-.43h1.75V5.52h-1.75c-1.26 0-2.26.29-2.8.89zm-3.78-.89v7.68h1.86V5.52h-1.86zm-8.46 0v7.68h1.8v-2.78h1.99c.66 0 1.09.06 1.37.32.32.4.26 1.06.26 1.49v.97h1.9V11.7c0-.66-.07-1-.35-1.38a2.24 2.24 0 0 0-.9-.66 2.17 2.17 0 0 0 1.33-2.04c0-.89-.38-1.37-.98-1.75-.6-.34-1.26-.34-2.2-.34h-4.22zm-7.48 0v7.69h6.16v-1.58h-4.3v-1.55h4.24V8.5H25.5V7.13h4.3V5.52h-6.16zm-7.52 7.69h1.58l2.7-6.03v6.03h1.86V5.51h-3.01l-2.27 5.22-2.4-5.22h-2.96v7.25L8.47 5.52H5.74l-3.3 7.68h1.99l.68-1.69h3.87l.7 1.7h3.75V7.17z"/></svg>
