<svg xmlns="http://www.w3.org/2000/svg" viewBox="0 0 95 32"><path d="M50.431 8.059c4.546 0 8.092 3.49 8.092 7.936 0 4.471-3.571 7.961-8.093 7.961-4.638 0-8.115-3.444-8.115-8.051 0-4.334 3.635-7.845 8.115-7.845zm-46.069.286c4.811 0 8.168 3.133 8.168 7.64a7.687 7.687 0 0 1-2.761 5.864C8.308 23.063 6.643 23.61 4.34 23.61H.001V8.345h4.362zm3.47 11.465c1.027-.912 1.639-2.379 1.639-3.847 0-1.464-.612-2.882-1.639-3.798-.984-.892-2.146-1.235-4.065-1.235H2.97v10.096h.797c1.919 0 3.127-.367 4.065-1.216zm6.068 3.801V8.346h2.965v15.265H13.9zm10.223-9.41c3.378 1.238 4.379 2.338 4.379 4.764 0 2.952-2.166 5.015-5.247 5.015-2.261 0-3.904-.896-5.271-2.907l1.914-1.856c.685 1.328 1.825 2.036 3.24 2.036 1.325 0 2.308-.915 2.308-2.152 0-.641-.298-1.189-.891-1.578-.297-.187-.889-.46-2.054-.87-2.784-1.01-3.742-2.085-3.742-4.192 0-2.493 2.055-4.371 4.745-4.371 1.667 0 3.196.571 4.473 1.696l-1.549 2.033c-.778-.867-1.508-1.233-2.398-1.233-1.28 0-2.213.732-2.213 1.694 0 .821.525 1.258 2.307 1.921zm5.315 1.785c0-4.436 3.605-7.985 8.101-7.985 1.278 0 2.352.273 3.653.935v3.504c-1.233-1.213-2.308-1.717-3.72-1.717-2.787 0-4.976 2.313-4.976 5.241 0 3.092 2.123 5.267 5.112 5.267 1.347 0 2.397-.48 3.585-1.671v3.504c-1.347.638-2.443.892-3.72.892-4.519 0-8.034-3.478-8.034-7.97zm35.801 2.615l4.11-10.254h3.216l-6.573 15.655h-1.596l-6.46-15.655h3.24zm8.675 5.011V8.347h8.418v2.585h-5.453v3.388h5.244v2.585h-5.244v4.123h5.453v2.584h-8.418zm20.167-10.76c0 2.336-1.23 3.87-3.469 4.329l4.794 6.43h-3.651l-4.105-6.135h-.388v6.135h-2.969V8.346h4.404c3.425 0 5.384 1.645 5.384 4.506zm-5.956 2.52c1.9 0 2.903-.827 2.903-2.359 0-1.486-1.004-2.266-2.856-2.266h-.911v4.626h.863z"/></svg>
