<svg xmlns="http://www.w3.org/2000/svg" viewBox="0 0 57 32"><path d="M47.11 10.48c2.21-.04 4.63.61 4.07 3.27l-1.37 6.27h-3.16l.22-.95c-1.72 1.71-6.04 1.82-5.34-2.11.5-2.3 2.88-3.03 6.42-3.03.25-1.02-.45-1.27-1.65-1.23s-2.63.43-3.09.65l.29-2.3c.9-.17 2.1-.57 3.61-.57zm.21 6.4c.07-.29.1-.54.18-.83h-.78c-.6 0-1.58.14-1.93.76-.45.73.18 1.35.88 1.31.8-.03 1.47-.4 1.65-1.23zM53.88 8h3.25l-2.65 12.02h-3.21zm-14.74.04c1.7 0 3.73 1.27 3.13 4.07a4.82 4.82 0 0 1-4.89 3.94h-2.42l-.88 3.97h-3.42l2.6-11.98h5.88zm-.1 4.07c.2-.9-.32-1.63-1.2-1.63h-1.69l-.7 3.27h1.58c.88 0 1.8-.72 2-1.63zm-22.7-1.63c2.19-.04 4.62.61 4.06 3.27l-1.35 6.26H15.9l.2-.94c-1.66 1.7-5.93 1.82-5.23-2.11.48-2.3 2.84-3.03 6.34-3.03.21-1.02-.48-1.27-1.66-1.23s-2.6.43-3.02.65l.28-2.3c.87-.18 2.05-.58 3.54-.58zm.25 6.4c.03-.29.1-.54.17-.83h-.8c-.55 0-1.52.14-1.87.76-.45.73.14 1.35.83 1.31.8-.03 1.5-.4 1.67-1.23zm11.94-6.23h3.25L24.28 24h-3.52l2.3-3.93-1.28-9.42h3.15l.51 5.58zM8.5 8.04c1.73 0 3.74 1.27 3.14 4.07a4.82 4.82 0 0 1-4.87 3.94H4.3L3.46 20H0L2.6 8.04h5.9zm-.1 4.07c.24-.9-.32-1.63-1.17-1.63h-1.7l-.73 3.27h1.62c.88 0 1.76-.72 1.97-1.63z"/></svg>
