<svg xmlns="http://www.w3.org/2000/svg" viewBox="0 0 54 32"><path d="M48.366 15.193c.6 0 .9.437.9 1.282 0 1.281-.546 2.209-1.337 2.209-.6 0-.9-.436-.9-1.31 0-1.281.573-2.182 1.337-2.182zm-10.09 3.082c0-.655.491-1.009 1.472-1.009.109 0 .191.027.382.027-.027.982-.545 1.636-1.227 1.636-.382 0-.628-.245-.628-.655zm-11.998-2.427v.327h-1.909c.164-.763.545-1.173 1.091-1.173.518 0 .818.3.818.845zM38.06.002c8.838 0 16.003 7.165 16.003 16.002S46.898 32.003 38.06 32.003a15.845 15.845 0 0 1-10.08-3.594c2.102-2.031 3.707-4.567 4.568-7.44h-1.33c-.833 2.553-2.297 4.807-4.199 6.627a16.117 16.117 0 0 1-4.172-6.62h-1.33a17.345 17.345 0 0 0 4.521 7.432c-2.749 2.219-6.223 3.594-10.036 3.594C7.165 32.002 0 24.839 0 16.003S7.164.002 16.002.002c3.814 0 7.287 1.377 10.036 3.603a17.251 17.251 0 0 0-4.521 7.424h1.33a15.988 15.988 0 0 1 4.172-6.607 15.933 15.933 0 0 1 4.199 6.614h1.33c-.861-2.872-2.466-5.413-4.568-7.443A15.851 15.851 0 0 1 38.06.001zM7.217 20.213h1.691l1.336-8.044H7.572l-1.637 4.99-.082-4.99H3.399l-1.336 8.044h1.582l1.037-6.135.136 6.135h1.173L8.2 14.024zm7.253-.736l.054-.408.382-2.318c.109-.736.136-.982.136-1.309 0-1.254-.791-1.909-2.263-1.909-.627 0-1.2.082-2.045.327l-.246 1.473.163-.028.246-.081c.382-.109.928-.164 1.418-.164.79 0 1.091.164 1.091.6 0 .109 0 .191-.055.409-.273-.027-.518-.054-.709-.054-1.909 0-2.999.927-2.999 2.536 0 1.064.627 1.773 1.554 1.773.791 0 1.364-.246 1.8-.791l-.027.682h1.418l.027-.164.027-.246zm3.518-3.163c-.736-.327-.819-.409-.819-.709 0-.355.3-.519.845-.519.328 0 .791.028 1.227.082l.246-1.5a9.859 9.859 0 0 0-1.5-.137c-1.909 0-2.59 1.009-2.563 2.208 0 .818.382 1.391 1.282 1.828.709.327.818.436.818.709 0 .409-.3.6-.982.6-.518 0-.982-.082-1.527-.245l-.246 1.5.082.027.3.054c.109.027.246.055.464.055.382.054.709.054.928.054 1.8 0 2.645-.682 2.645-2.181 0-.9-.354-1.418-1.2-1.828zm3.762 2.427c-.409 0-.573-.136-.573-.464 0-.082 0-.164.027-.273l.463-2.726h.873l.218-1.609h-.873l.191-.982h-1.691l-.737 4.472-.082.518-.109.654a4.544 4.544 0 0 0-.055.573c0 .954.491 1.445 1.364 1.445a3.55 3.55 0 0 0 1.227-.218l.218-1.445c-.109.054-.273.054-.464.054zm3.982.11c-.982 0-1.5-.381-1.5-1.145 0-.055 0-.109.027-.191h3.382c.163-.682.218-1.145.218-1.636 0-1.446-.9-2.373-2.318-2.373-1.718 0-2.973 1.663-2.973 3.899 0 1.936.982 2.945 2.89 2.945.628 0 1.173-.082 1.773-.273l.273-1.636c-.6.3-1.145.409-1.773.409zm5.426-3.327h.109c.164-.79.382-1.363.655-1.881l-.055-.027h-.164c-.573 0-.9.273-1.418 1.064l.164-1.009h-1.554l-1.064 6.544h1.718c.627-4.008.791-4.69 1.609-4.69zm4.964 4.609l.3-1.827c-.545.273-1.036.409-1.445.409-1.009 0-1.609-.737-1.609-1.963 0-1.773.9-3.027 2.182-3.027.491 0 .928.136 1.528.436l.3-1.745c-.163-.054-.218-.082-.436-.163l-.682-.164a3.385 3.385 0 0 0-.791-.082c-2.263 0-3.845 2.018-3.845 4.88 0 2.155 1.146 3.491 3 3.491.463 0 .872-.082 1.5-.246zm5.399-1.064l.355-2.318c.136-.736.136-.982.136-1.309 0-1.254-.763-1.909-2.236-1.909-.627 0-1.2.082-2.045.327l-.246 1.473.164-.028.218-.081c.382-.109.955-.164 1.446-.164.791 0 1.091.164 1.091.6 0 .109-.027.191-.082.409-.246-.027-.491-.054-.682-.054-1.909 0-3 .927-3 2.536 0 1.064.627 1.773 1.555 1.773.791 0 1.363-.246 1.8-.791l-.028.682h1.418v-.164l.027-.246.054-.327zm2.127 1.145c.627-4.008.791-4.69 1.608-4.69h.109c.164-.79.382-1.363.655-1.881l-.055-.027h-.164c-.572 0-.9.273-1.418 1.064l.164-1.009h-1.554l-1.037 6.544h1.691zm5.181 0h1.608l1.309-8.044h-1.691l-.382 2.291c-.464-.6-.955-.9-1.637-.9-1.5 0-2.782 1.854-2.782 4.035 0 1.636.818 2.7 2.073 2.7.627 0 1.118-.218 1.582-.709zm-37.523-1.935c0-.655.492-1.009 1.447-1.009.136 0 .218.027.382.027-.027.982-.518 1.636-1.228 1.636-.382 0-.6-.245-.6-.655z"/></svg>
