<svg viewBox="0 0 26 26" xmlns="http://www.w3.org/2000/svg"><path d="M17.647 12.125h-3.323a.195.195 0 0 0-.197.194v2.327c0 .107.087.193.197.193h3.323c.95 0 1.542-.524 1.542-1.357 0-.795-.594-1.358-1.543-1.358zm-2.62-2.423h3.233c2.51 0 3.988 1.57 3.988 3.296 0 1.35-.915 2.345-1.885 2.78a.186.186 0 0 0 .01.346c1.128.443 1.94 1.623 1.94 3 0 1.96-1.305 3.512-3.837 3.512h-6.96a.195.195 0 0 1-.197-.194v-9.03L.237 24.49c-.51.508-.148 1.378.57 1.378h24.254a.808.808 0 0 0 .808-.808V.81c0-.72-.87-1.08-1.38-.572L15.03 9.702zm-.703 7.562a.195.195 0 0 0-.197.194v2.56c0 .106.087.193.197.193h3.44c1.05 0 1.682-.542 1.682-1.472 0-.815-.593-1.474-1.68-1.474h-3.442z" fill="#FFF" fill-rule="evenodd"/></svg>
