<svg xmlns="http://www.w3.org/2000/svg" viewBox="0 0 64 32"><path d="M16.66 30.58V14.6h1.48l.33-.81h.75l.33.81h2.87v-.64l.26.64h1.5l.27-.64v.64h7.25v-1.33h.13c.12 0 .14.1.14.19v1.14h3.72v-.3c.86.45 2.06.3 2.96.3l.33-.81h.74l.33.81h3.03v-.77l.48.77H46V9.57h-2.43v.6l-.33-.6h-2.45v.6l-.31-.6h-3.31a3.19 3.19 0 0 0-1.48.3h.02v-.3h-2.3v.3a1.4 1.4 0 0 0-.98-.3h-8.38l-.58 1.28-.58-1.28h-2.64v.6l-.3-.6H17.7l-1.04 2.4V-.18H47.4v15.96H45.71c-.37 0-.71.11-1 .3v-.3h-2.46c-.35 0-.67.11-.93.3v-.3H37.1v.3c-.3-.19-.68-.3-1.07-.3h-.1.01-2.8v.3a1.9 1.9 0 0 0-1.22-.3h.01-3.1l-.72.78-.64-.78h-4.7v5.05h4.57l.74-.8.7.8h2.81v-1.19H32.04c.37 0 .72-.06 1.05-.18h-.02v1.37h2.32v-1.32h.1c.14 0 .17 0 .17.16v1.16h7.13c.4 0 .78-.12 1.1-.33h-.01v.33h2.39c.4 0 .8-.08 1.15-.23h-.02v9.97zm9.32-16.66h-.87v-2.86l-1.28 2.84h-.77l-1.28-2.84v2.86h-1.7l-.34-.8h-1.8l-.33.8h-.95l1.55-3.62h1.28l1.47 3.43v-3.46h1.41l1.14 2.46 1.02-2.46h1.44zm-6.55-1.57l-.6-1.45-.6 1.44zm11.4 6.56v1.22h-1.68l-1.07-1.2-1.11 1.2h-3.42v-3.65h3.48l1.07 1.19 1.09-1.19h2.76c.81 0 1.45.29 1.45 1.19 0 1.48-1.58 1.24-2.57 1.24zm-3.28-.6l-.96-1.05H24.4v.64h1.92v.74h-1.92v.73h2.12zm1.97-4.39h-2.9v-3.64h2.9v.76H27.5v.64h1.97v.74H27.5v.72h2.03zm.44 5.9V16.9l-1.32 1.43zm3.02-7.56c.5.17.58.48.58.96v.7h-.89c0-.77.19-1.28-.77-1.28h-.93v1.28h-.86v-3.64h2.04c.7 0 1.43.1 1.43.96v.04c0 .41-.24.77-.6.94zm-1.03 5.02h-1.12v.93h1.11c.3 0 .55-.15.55-.48s-.25-.47-.54-.47zm.13-6.22h-1.1v.8h1.05c.3 0 .58-.06.58-.41s-.27-.41-.54-.41zm4.6 7.41c.48.17.58.5.58.96v.72h-.88v-.6c0-.64-.2-.72-.77-.72h-.92v1.32h-.87v-3.67h2.06c.67 0 1.41.13 1.41.98v.05c0 .42-.25.78-.6.93h-.02zm-1.71-4.55h-.88v-3.64h.87zm.8 3.36H34.7v.82h1.08c.3 0 .58-.07.58-.43s-.3-.41-.57-.41zm9.43-3.36h-1.22l-1.63-2.73v2.73h-1.77l-.34-.8h-1.8l-.32.8h-1c-1.19 0-1.72-.64-1.72-1.77s.54-1.85 1.77-1.85h.84v.79c-.91 0-1.74-.21-1.74 1.02 0 .64.15 1.04.84 1.04h.39l1.23-2.84H40l1.45 3.41V10.3h1.32l1.53 2.51v-2.51h.87zm-4.55 6.23H37.8v-3.67h2.88v.75h-2.04v.64h1.98v.74h-1.98v.76h2.01zm-.7-7.78l-.59-1.44-.6 1.44zm2.9 7.76h-1.68v-.78h1.69c.2 0 .45-.05.45-.33 0-.77-2.23.3-2.23-1.43v-.03a1.08 1.08 0 0 1 1.2-1.08h1.74v.77h-1.56c-.23 0-.48.03-.48.33 0 .79 2.24-.36 2.24 1.38-.02.87-.6 1.17-1.36 1.17zm4.56-.44a1.37 1.37 0 0 1-1.18.46h-1.66v-.8h1.66c.22 0 .45-.06.45-.33 0-.76-2.23.3-2.23-1.43v-.02a1.1 1.1 0 0 1 1.24-1.09h1.72v.77h-1.58c-.24 0-.48.03-.48.33 0 .64 1.5 0 2.06.7z"/></svg>
