<svg xmlns="http://www.w3.org/2000/svg" viewBox="0 0 64 32"><path d="M10.82 2.17L9.61 4.43 5.13 12.9a.35.35 0 0 1-.38.22H3.08a.19.19 0 0 1-.18-.18q-.56-2.7-1.16-5.42C1.38 5.9 1.02 4.27.64 2.65c0-.18 0-.26.18-.26l1.92-.31c.14 0 .18 0 .2.14Q3.7 6.2 4.5 10.17c0 .06 0 .1.04.16s.08-.1.1-.16q1.95-3.94 3.9-7.82a.28.28 0 0 1 .3-.19h2zm32.53 8.66c.15.4.53.69.98.69h.02a2.31 2.31 0 0 0 1.57-.69.93.93 0 0 0 .42-.75c.01-.12.03-.24.06-.35v.01l.37-2.37c0-.1 0-.17-.1-.23a2.73 2.73 0 0 0-1.56-.26c-.65.1-1.18.54-1.44 1.12v.01a4.42 4.42 0 0 0-.46 1.86v.15c0 .3.05.57.15.83v-.02zM46.12 12c-.41.45-.93.8-1.52 1.02l-.03.01a2.49 2.49 0 0 1-2.57-.4h.01c-.45-.41-.74-1-.75-1.65a5.97 5.97 0 0 1 1.09-4.12l-.02.01a3.63 3.63 0 0 1 3.56-1.5h-.02c.37.04.72.1 1.04.22l-.03-.01c.14.04.15 0 .17-.12.16-1.12.34-2.24.51-3.35 0-.1.04-.16.16-.18l1.72-.27c.13 0 .1.05.08.12l-.42 2.7-.73 4.85-.55 3.6c0 .1-.05.13-.15.13h-1.38c-.13 0-.14-.06-.14-.15-.03-.27-.03-.57-.03-.91zM11.09 8.42h2.86c.1 0 .11-.05.11-.13a2.82 2.82 0 0 0-.06-.76v.02a1.1 1.1 0 0 0-.8-.92 1.38 1.38 0 0 0-1.17.23v-.01c-.48.38-.83.9-.96 1.52v.02zm2.18 1.2h-2.25c-.15 0-.2.05-.2.19l-.01.23c0 .46.16.89.43 1.22a1.78 1.78 0 0 0 1.5.48c.88-.07 1.7-.37 2.39-.83l-.02.01c.06-.03.11-.11.18-.07s0 .12 0 .2V12.18a.2.2 0 0 1-.1.18 5.58 5.58 0 0 1-4.2.74h.04a2.57 2.57 0 0 1-2.11-2.5 5.28 5.28 0 0 1 1.06-3.73h-.01a3.76 3.76 0 0 1 3.9-1.5h-.02c1.01.18 1.8 1 1.92 2.01v.01a5.52 5.52 0 0 1-.02 2.08v-.03c0 .13-.09.16-.21.16zm25.47-1.19c.14 0 .18-.04.17-.18 0-.23-.02-.45-.05-.66v.02a1.13 1.13 0 0 0-.83-1H38c-.1-.03-.22-.05-.34-.05-.3 0-.57.1-.8.26-.47.35-.81.86-.96 1.45v.02c-.05.15.05.12.12.12h1.36c.44.01.9 0 1.34.02zm-.64 1.2h-2.22c-.14 0-.2.04-.19.18a4.13 4.13 0 0 0 .04.67v-.02a1.5 1.5 0 0 0 1.63 1.28c.87 0 1.7-.26 2.39-.69l-.02.01c.11-.06.24-.12.34-.2s.13 0 .13.07v1.29c0 .06-.03.1-.08.13a5.42 5.42 0 0 1-4.52.63h.04a2.4 2.4 0 0 1-1.77-2.09 5.2 5.2 0 0 1 1.2-4.3h-.02a3.7 3.7 0 0 1 3.78-1.28h-.03c.98.19 1.73.97 1.87 1.94v.02a5.12 5.12 0 0 1-.05 2.2v-.04c0 .13-.09.13-.18.13zm-10.72 3.44c.22 0 .29-.06.32-.27l.85-5.63c0-.15.08-.18.22-.18h1.28c.18 0 .24-.03.24-.22v-1.2c0-.13-.05-.15-.15-.15h-1.15c-.13 0-.17 0-.15-.15.06-.38.1-.75.18-1.11.07-.42.4-.75.83-.79a3.37 3.37 0 0 1 .93 0h-.02c.13 0 .16 0 .16-.15V2.04c0-.18-.07-.23-.23-.25a6.47 6.47 0 0 0-1.15 0h.03c-1.2.04-2.18.91-2.38 2.06v.01c-.1.45-.16.9-.22 1.36 0 .14-.07.19-.22.18h-.79c-.1 0-.14 0-.16.12l-.2 1.32c0 .13.05.13.13.13h.8c.12 0 .15.03.14.14q-.3 1.83-.57 3.67c-.11.69-.2 1.38-.32 2.07 0 .17 0 .2.17.2h.75c.25 0 .46 0 .68.02zm28.13-3.8a.83.83 0 0 0-.99-.81c-.5.1-.92.35-1.23.72a.18.18 0 0 0 0 .1l-.37 2.4c0 .1 0 .14.09.16.8.24 1.82.2 2.28-.91.16-.4.26-.86.27-1.34-.03-.08-.04-.2-.05-.32zm-2.04-1.36c.31-.28.68-.5 1.09-.64h.02c1.04-.3 2.2.04 2.4 1.45a4.3 4.3 0 0 1-.78 3.21 2.9 2.9 0 0 1-2.21 1.16 6.38 6.38 0 0 1-2.55-.3l.05.02c-.17-.05-.22-.13-.19-.3l.53-3.39.64-4.3c0-.14.04-.2.2-.22.44-.03.83-.09 1.22-.16h-.07c.21-.04.2.05.18.2l-.27 1.73zM19.12 5.63c0-.17-.06-.21-.22-.2h-1.12c-.38 0-.3 0-.33.28l-.7 4.57-.4 2.57c0 .17 0 .21.19.2h1.53c.12 0 .17-.03.2-.15.17-1.23.36-2.46.56-3.69.03-.2 0-.44.16-.64.66-.77 1.6-1.3 2.67-1.41h.02c.13 0 .16-.06.16-.18V5.4c0-.14-.03-.17-.17-.16a3.2 3.2 0 0 0-1.49.6l.01-.02c-.4.32-.76.67-1.05 1.07l-.01.02c-.02-.46-.03-.87-.02-1.3zm41 5.53l-.64-3.78c0-.13-.06-.2-.22-.17-.4.06-.8.1-1.2.14-.13 0-.15.06-.12.2l1.13 5.3a.44.44 0 0 1 0 .3v-.01a1.25 1.25 0 0 1-1.36.9c-.12 0-.23-.01-.35-.04h.02c-.1 0-.15 0-.15.12v.9c0 .12.04.17.16.18a2.44 2.44 0 0 0 1.93-.47l-.01.01c.38-.33.68-.73.9-1.18l.01-.02c.42-.81.83-1.62 1.28-2.43l1.9-3.67c.06-.14.04-.17-.11-.16H62.2a.29.29 0 0 0-.28.2c-.36.79-.74 1.58-1.12 2.37l-.64 1.4a.5.5 0 0 1-.07-.09zm-36.56 1.92c.12 0 .17 0 .2-.15q.53-3.67 1.1-7.34c0-.18 0-.19-.18-.19h-1.44c-.2 0-.28.06-.31.27l-.74 4.86-.36 2.3c0 .18 0 .23.18.22s.5 0 .74 0zm8.33 0c.12 0 .16-.03.17-.15l.2-1.32.93-6c0-.14 0-.17-.15-.17H31.6c-.32 0-.31 0-.36.32l-.71 4.6-.4 2.52c0 .14 0 .2.17.2h.8zM24.73 2a1.32 1.32 0 0 0-1.56 1.02v.01a.88.88 0 0 0 .52 1.05h.01a1.28 1.28 0 0 0 1.74-1.16v-.05c0-.43-.3-.79-.7-.87zm8.92 1.45A.96.96 0 0 0 33.07 2a1.33 1.33 0 0 0-1.53.9h-.01c-.21.7.2 1.28 1.04 1.28.48-.03.88-.32 1.07-.72v-.01zm-2.73 12.5h3.38l-2.11 12.42H28.8l2.12-12.42zm13.55.4a8.57 8.57 0 0 0-2.95-.5h-.09c-3.34 0-5.69 1.68-5.71 4.09 0 1.78 1.67 2.78 2.96 3.37s1.76 1 1.76 1.53c0 .84-1.05 1.22-2.03 1.22h-.25a7.07 7.07 0 0 1-3-.66l.05.01-.44-.2-.45 2.8c1.08.41 2.34.65 3.65.65h.12c3.55 0 5.86-1.67 5.89-4.25 0-1.4-.89-2.48-2.84-3.37-1.18-.57-1.92-.95-1.92-1.53s.64-1.07 1.92-1.07h.17c.87 0 1.69.17 2.44.49l-.05-.02.3.14.47-2.69zm8.7-.29h-2.64l-.21-.01c-.7 0-1.3.42-1.56 1.03v.01l-5.03 11.38h3.56l.71-1.86h4.33l.41 1.85h3.14l-2.7-12.4zm-4.2 8l1.35-3.47c0 .03.28-.72.45-1.19l.23 1.08.78 3.58h-2.8zm-23-8l-3.3 8.46-.36-1.72a9.75 9.75 0 0 0-4.63-5.18l-.05-.03 3.03 10.86h3.58l5.33-12.39h-3.6zm-6.37 0h-5.46l-.05.25c4.25 1.02 7.05 3.51 8.22 6.5l-1.17-5.69a1.42 1.42 0 0 0-1.54-1.05h.01zm-1.84 2a.75.75 0 0 0-.4-.56l1 .45z"/></svg>
