<svg xmlns="http://www.w3.org/2000/svg" viewBox="0 0 64 32"><path d="M10.2 15.34h21.54l2.44-2.44h7.9l-6.74 7.48H10.19v-5.04zm18.29-5.22l-4.65 4.78h7.6l2.51-2.45h9.13l-2.34 2.7h12.9v-5.03H28.48zm25.8-10.3H9.77a3.6 3.6 0 0 0-3.6 3.6v23.55a3.6 3.6 0 0 0 3.6 3.6H54.3a3.6 3.6 0 0 0 3.6-3.6V3.43a3.6 3.6 0 0 0-3.6-3.6zm2.73 27.16a2.84 2.84 0 0 1-2.84 2.84H9.88a2.84 2.84 0 0 1-2.83-2.84V3.42A2.84 2.84 0 0 1 9.88.58h44.3a2.84 2.84 0 0 1 2.84 2.84zM13.6 2.01c.82.22 1.42.95 1.42 1.83v.02c-.02.43-.2.8-.47 1.1l-.12.13a1.75 1.75 0 0 1 .75 2.28 1.78 1.78 0 0 1-1.61 1.1 2.11 2.11 0 0 0-.24 0h-2.8c-.2 0-.2 0-.2-.21v-6.2h3.05L13.6 2h-.01zM12.1 3.3v1.23h.72a.5.5 0 0 0 .5-.41.64.64 0 0 0-.25-.64 1.09 1.09 0 0 0-.98-.19zm0 3.9a6.95 6.95 0 0 0 .87 0h-.02c.3-.02.55-.28.55-.59v-.06c0-.3-.2-.55-.47-.62a5.54 5.54 0 0 0-.96 0h.03a.64.64 0 0 0 0 .13v1.07s-.03.03-.02.05zm16.88-.85c0-1.08.75-2 1.75-2.24h.02A2.5 2.5 0 0 1 33.6 5.3a2.25 2.25 0 0 1-1.27 3.2v.01c-.22.07-.46.12-.72.12a2.63 2.63 0 0 1-.85-.05h.02a2.3 2.3 0 0 1-1.8-2.24v-.01zm1.58 0v.04c0 .46.37.84.83.86h.01a.9.9 0 0 0 .9-.87V6.3a.85.85 0 0 0-.89-.85h-.04a.8.8 0 0 0-.8.8v.06zM19.74 8.52H18.5c-.06 0-.12-.05-.22-.1-.3.14-.65.22-1.02.23h-.2c-.36 0-.7-.08-1.01-.24h.01a1.09 1.09 0 0 1-.55-1.1c.03-.8.63-1.45 1.4-1.57h.01c.26-.06.58-.11.9-.14h.19c.05 0 .17-.1.2-.17s-.08-.13-.13-.2-.1-.08-.14-.08h-.69a.53.53 0 0 0-.16.07l-.79.18c-.15.03-.3.1-.47.16 0-.14.04-.27.06-.4l.13-.63c0-.1.05-.18.16-.2l.87-.14c.2-.03.41-.06.64-.06h.07c.5 0 .99.11 1.41.33l-.02-.01c.35.16.6.46.7.83a.45.45 0 0 0 .01.12v2.85c-.02.1-.06.2-.12.28zm-1.42-1.59a1.51 1.51 0 0 0 0-.25c0-.03-.06-.09-.09-.09h-.1c-.34 0-.65.13-.87.34a.45.45 0 0 0-.08.53.56.56 0 0 0 .5.23h.01a.64.64 0 0 0 .63-.76zm24.94 1.7a3.96 3.96 0 0 1-.63-.22l.03.01a1.01 1.01 0 0 1-.58-.9 1.47 1.47 0 0 1 .64-1.42c.23-.15.5-.28.78-.36h.02c.27-.06.6-.12.94-.15h.1c.12 0 .24-.05.25-.19s-.11-.17-.22-.17a5.92 5.92 0 0 0-.98 0h.02c-.41.06-.82.18-1.25.27l.13-.7c0-.09.04-.17.05-.26v-.01c0-.13.08-.23.2-.25a4.52 4.52 0 0 1 2.6 0h-.04c.36.09.66.28.87.55.09.13.16.28.22.44l.01.02a.48.48 0 0 0-.04.13V8.3c0 .1-.05.2-.14.24h-1.16a.72.72 0 0 1-.22-.1v.01l-.73.19-.82-.04-.05.04zm.52-1.12a.46.46 0 0 0 .64.14.64.64 0 0 0 .46-.78.69.69 0 0 1 0-.13c0-.1-.04-.17-.15-.15-.24.04-.45.1-.66.18h.02a.53.53 0 0 0-.3.75h-.01zm-23.48 1a1.49 1.49 0 0 1 0-.2V4.4c0-.22 0-.22.21-.22h1.2c.2 0 .2 0 .2.2v.1l.19-.1a1.7 1.7 0 0 1 2.2.25c.26.28.41.65.41 1.06v2.71a.63.63 0 0 1 0 .13.27.27 0 0 0-.08-.04h-1.1c-.1 0-.17.02-.25.04h.01-.03a.9.9 0 0 1-.1-.27V6.24c0-.08-.02-.16-.04-.24V6a.64.64 0 0 0-.44-.54.64.64 0 0 0-.77.35h-.01c-.13 0-.1.11-.1.19V8.45h-.2c-.28 0-.55 0-.84.03-.16 0-.32-.06-.46.04zm13.89-4.33h1.4c.1 0 .16.03.16.14v.15l.28-.16a1.75 1.75 0 0 1 2.11.27c.23.23.39.53.43.86v.01a2.11 2.11 0 0 0 0 .24v2.56c-.01.11-.03.21-.07.3h-1.34c-.15 0-.16-.09-.16-.19V6.52v-.48-.01c0-.3-.23-.55-.52-.58h-.06a.64.64 0 0 0-.58.37c0 .05-.04.11-.06.16a1.49 1.49 0 0 0 0 .2v2.35h-1.56a3.1 3.1 0 0 1 0-.3v.01q-.03-2-.03-4.06zm4.63.82v-.69c0-.11.04-.15.15-.15.37 0 .37 0 .37-.39v-.55-.01c0-.08.03-.14.09-.18l1.46-.76h.05v1.69c0 .13.04.19.18.18s.4 0 .59 0c.07 0 .13 0 .13.11v1.07H41a.91.91 0 0 0-.04.2v1.65c0 .04-.03.13.07.07.2.19.43.11.64.04a.16.16 0 0 1 .11.21.8.8 0 0 0 0 .3l.02.11c0 .22-.15.4-.35.46a.7.7 0 0 0-.16.14 1.6 1.6 0 0 1-1.23-.04h.01a1.2 1.2 0 0 1-.75-1.1V7.3 5.4c-.1 0-.2-.03-.3-.04s-.16 0-.16-.14a1.32 1.32 0 0 0-.04-.22V5zm14.17 2.31a.59.59 0 0 0 .59 0 .16.16 0 0 1 .13.2v.17a1.35 1.35 0 0 1-.07.65v-.01a1.6 1.6 0 0 1-1.15.29c-.5-.02-.92-.33-1.11-.76-.07-.16-.1-.34-.1-.52V5.65c0-.08-.02-.15-.03-.22v.01a2.37 2.37 0 0 0-.3 0c-.12 0-.18-.04-.18-.17V4.4c0-.06.06-.12.1-.18h.06c.36 0 .36 0 .36-.36v-.57a.2.2 0 0 1 .1-.25l1.18-.64c.23 0 .23 0 .23.27v1.28l.05.22h.85v1.18h-.77a.91.91 0 0 0-.05.19v1.62c0 .1-.04.2.1.16zm-2.53-1.58l-.3-.15h-.01a1.66 1.66 0 0 0-1.3-.05h.02a.91.91 0 0 0-.57.98c.01.18.11.33.26.43a1.73 1.73 0 0 0 1.74.04l.14-.07v1.25c0 .07-.04.14-.1.17a2.56 2.56 0 0 1-3.48-1.14l-.01-.02a2.23 2.23 0 0 1 1.57-3.04h.01a3.11 3.11 0 0 1 1.87.12h-.03a.27.27 0 0 1 .21.3v1.02l-.02.16zm-21.89-.08a1.75 1.75 0 0 0-1.26-.19h.01a.95.95 0 0 0-.76.72.64.64 0 0 0 .17.64c.16.2.4.33.68.36a2.34 2.34 0 0 0 1.02-.11h-.02l.25-.04v.98a1.9 1.9 0 0 1-.07.33v-.02a2.34 2.34 0 0 1-1.52.26h.01a2.23 2.23 0 0 1-1.19-.47c-.1-.12-.2-.25-.32-.36l-.19-.14a2.01 2.01 0 0 1-.4-1.55 2.16 2.16 0 0 1 1.85-1.96h.01a2.67 2.67 0 0 1 1.78.22h-.02c.03.07.05.16.07.25v.88a.67.67 0 0 1-.1.2zM10.33 2.04v6.2c0 .2 0 .21.2.21h2.8a2.11 2.11 0 0 1 .24 0H10.3v-.2-6.1c0-.08.01-.15.03-.2zM20.3 8.5c.14-.1.3-.03.45-.04.28 0 .56 0 .84-.03h.2v-.41-1.78V6c0-.08 0-.18.1-.2l-.05.27v2.24c0 .22 0 .22-.2.22zm13.89-4.33v4.05a3.1 3.1 0 0 0 0 .3v-.01a.5.5 0 0 1-.06-.16v-1.7-2.3a.9.9 0 0 1 .06-.19zm12.07 4.34a.27.27 0 0 0 .14-.24v-.03-2.83c0-.05.02-.1.04-.14v3.23zm-26.52 0a.9.9 0 0 0 .1-.27V5.39a.45.45 0 0 1 0-.1v3.05c.02.1.06.2-.1.18zm21.56.01l.15-.14a.48.48 0 0 0 .34-.58.8.8 0 0 1 0-.3v-.04a.16.16 0 0 0-.12-.16l.18-.1v1.01c0 .03-.05.08-.09.1zm-2.86 0l.06-.3V5.66a2.11 2.11 0 0 1 0-.24v2.95c.07.1.07.17-.06.15zM23.12 6c.01.07.03.15.03.23v2c.02.11.05.2.1.29-.14 0-.14-.07-.14-.17L23.12 6zm12.59 2.52V6.17a1.49 1.49 0 0 1 0-.2V8.4a.55.55 0 0 1 0 .12zm17.15-4.34a1.02 1.02 0 0 1-.05-.2v-.01-1.29c0-.25 0-.25-.23-.27l.28-.15zm.13 3.13c-.15.05-.1-.06-.1-.12V6.2v-.64a.91.91 0 0 1 .05-.2v1.74a1 1 0 0 0 .05.2zM41 7.28c-.1.06-.07-.04-.07-.07v-.59-1.06l.07-.22v1.77a1.05 1.05 0 0 0 0 .17zm9.85-3.1c-.04.05-.1.12-.1.18v.9c0 .12.06.16.18.16a2.37 2.37 0 0 1 .3 0h-.52v-.49-.64c0-.09.03-.13.14-.11zM28.6 8.32l.07-.3V8v-.77-.2l-.25.04.3-.18v1.24c0 .09-.02.16-.11.19zm-.03-2.67a.67.67 0 0 0 .1-.22v-.87l-.07-.28v.01c.04.05.1.1.1.14V5.7zM23.3 8.52c.07-.02.15-.04.23-.04h1.06c.03 0 .06.02.1.04zm-6.2-3.3a.5.5 0 0 1 .15-.07h.7c.04 0 .09.04.14.08zm36.55 3.1a1.34 1.34 0 0 0 .06-.65v-.16-.04a.16.16 0 0 0-.13-.16l.17-.1v1c0 .04-.06.07-.1.11zM25.39 7.6c.08.04.14.09.2.14l.32.37zm17.87 1.02s.05-.03.08-.03l.81.03zm10.45-3.28V4.18v1.11s.01.03 0 .05zM38.81 5c.03.08.05.17.05.27 0 .13.06.14.16.15s.2 0 .3.04h-.37c-.1 0-.14-.04-.14-.14V5zm-26.73.9v1.28s-.04-.04-.04-.07V6.03l.04-.13zm.02-2.62V4.5 3.28zm31.68 4.23a.74.74 0 0 0 .65.14.45.45 0 0 1-.64-.14h-.01zm-29.14 20.8a1.82 1.82 0 0 1 0-.22v-3.2-.01a.35.35 0 0 0-.04-.17l-1.25 1.77-.12-.16-1.11-1.57a.74.74 0 0 0-.07-.08.74.74 0 0 0-.03.16v3.46h-1.55c-.12 0-.15-.05-.15-.15v-3.17a1.05 1.05 0 0 0 0-.17v-2.7a.83.83 0 0 0-.04-.17h.2-.01H11.85a.3.3 0 0 1 .26.16l1.08 1.56.12.18.14-.24 1.03-1.49a.31.31 0 0 1 .3-.16h1.4c.11 0 .16.04.16.17 0 1 0 1.98-.03 2.96a.42.42 0 0 0-.07.15v2.88c0 .11-.04.16-.16.15h-1.2c-.2 0-.21 0-.22-.2v-2.98-.21c0-.07 0-.05-.03-.07h-.03zm36.04 0H49.4c-.08 0-.13-.03-.13-.12v-.13-5.87c0-.25 0-.25.24-.25h1.1a1.52 1.52 0 0 1 .2 0 .3.3 0 0 0 0 .1v1.91a1.3 1.3 0 0 0 0 .2v-.01l.2-.08h-.02a1.83 1.83 0 0 1 2.18.11c.4.3.64.76.64 1.28v2.57c0 .27 0 .27-.27.25a1.52 1.52 0 0 0-.2 0h-.88c-.24 0-.26 0-.26-.27v-2.24l-.05-.07c-.16-.39-.37-.55-.71-.51a.64.64 0 0 0-.6.5v2.4c0 .1-.06.2-.16.24zM35.05 24.7a3.21 3.21 0 0 1 2.38-2.7h.02a4.55 4.55 0 0 1 2.7.14l-.04-.01.09.04v.09c.04.06.08.13.1.21v1.02a.53.53 0 0 1-.08.18 2.24 2.24 0 0 0-.87-.33 3.38 3.38 0 0 0-1.48.06h.02c-.65.2-1.13.77-1.21 1.46v.11a1.98 1.98 0 0 0 2.07 1.98h.08c.5 0 .98-.14 1.38-.39h-.01l.1.22v1.02a.77.77 0 0 0 0 .14c-.22.12-.48.23-.75.32l-.04.01a3.72 3.72 0 0 1-3.35-.69l.01.01a3.05 3.05 0 0 1-1.16-2.02v-.02zm9.9 3.54h-1.33c-.14-.15-.27 0-.4 0a2.8 2.8 0 0 1-1.73 0h.02a1.2 1.2 0 0 1-.87-1.38c.09-.72.64-1.28 1.34-1.4.29-.07.63-.12.99-.15H43a.7.7 0 0 0 .26-.08c.06-.04.1-.1.11-.18 0-.05-.08-.12-.14-.14a.96.96 0 0 0-.3-.05h-.16c-.64 0-1.24.12-1.8.35l.04-.01-.12.03c0-.16.05-.31.08-.46s.07-.43.13-.64a.21.21 0 0 1 .12-.13c.33-.08.64-.14 1-.2h1c.48.03.91.19 1.29.43h-.01c.27.18.47.47.5.81h.01a1.85 1.85 0 0 0 0 .23v2.7c-.01.1-.03.19-.07.28v-.01zm-1.52-1.58c0-.4 0-.4-.4-.32-.26.03-.48.15-.65.32a.45.45 0 0 0-.08.51c.1.15.28.24.48.24h.04a.67.67 0 0 0 .61-.75zm-16.48-.38a.54.54 0 0 0 .3.64 1.85 1.85 0 0 0 1.3.14h-.01c.34-.08.68-.22 1.03-.33.1 0 .11.08.11.16v1.07c-.29.2-.64.35-1.02.41h-.01c-.15.04-.3.05-.45.07l-.75-.07v.07a2.33 2.33 0 0 1-.32-4.6h.02a2.44 2.44 0 0 1 1.53.16h-.01c.62.3 1.04.9 1.08 1.61v.3a1 1 0 0 0 0 .2c0 .13-.05.17-.17.17h-2.4a1.46 1.46 0 0 0-.24 0zm-.04-.9h1.39a.58.58 0 0 0-.57-.54c-.55-.03-.78.14-.82.54zm-2.47-1.52h.74c.14 0 .2.04.2.19v.9c0 .12-.05.16-.16.16h-.71a1.65 1.65 0 0 0 0 .15v1.58c0 .24.12.36.37.32.2-.05.36-.1.52-.16h-.03a.3.3 0 0 1 0 .1v.85c0 .06-.04.12-.08.16a1.8 1.8 0 0 1-1.61.23h.01a1.17 1.17 0 0 1-.84-1.34.99.99 0 0 0 .03-.17v-1.44a.97.97 0 0 0-.04-.18h-.44c-.15 0-.15-.03-.15-.14v-1.01c0-.12.05-.15.15-.15s.3 0 .44-.04c.01-.06.03-.12.03-.2v-.64c0-.1 0-.2.13-.22v-.07l1.28-.68c.03.07.05.15.06.23v1.45a.8.8 0 0 0 .1.13zm-2.09 3.51c-.22.49-.67.83-1.2.91h-.01a4.25 4.25 0 0 1-2.22-.15l.03.01a.26.26 0 0 1-.22-.3V26.8l.46.16h-.04a3.28 3.28 0 0 0 1.37.14h-.01c.04 0 .08-.07.13-.1.16-.2.14-.34-.1-.45s-.4-.1-.6-.16c-.18-.04-.34-.1-.5-.16h.03a1.16 1.16 0 0 1-.5-1.69c.23-.42.66-.72 1.16-.78h.01a3.64 3.64 0 0 1 1.77.2h-.03c.04 0 .1.05.1.08l.09 1.12a5.32 5.32 0 0 0-.6-.16h-.04c-.21-.04-.45-.06-.7-.06a.33.33 0 0 0-.2.07.17.17 0 0 0 0 .3c.12.04.25.08.38.1h.01c.46.06.86.27 1.17.56.1.13.2.28.28.43v.01a.85.85 0 0 0 0 .16v.4l-.02.4zm25.98-3.4c.22.04.23.05.24.26l.05.97-.14-.05c-.3-.12-.65-.2-1.02-.2h-.05-.03a.53.53 0 0 0-.2.05.31.31 0 0 0-.15.18c0 .05.07.14.13.17.1.04.22.07.34.09.39.06.73.2 1.03.41h-.01a1.22 1.22 0 0 1 .29 1.74c-.25.35-.63.6-1.07.67a4.1 4.1 0 0 1-2.22-.13h.03l-.07-.01a.31.31 0 0 1-.13-.31v-.8a.35.35 0 0 1 0-.1h.24c.34.13.72.2 1.12.2h.1c.12 0 .23-.04.33-.09a.2.2 0 0 0 0-.35 1.69 1.69 0 0 0-.4-.17h-.01c-.24-.07-.48-.11-.7-.2a1.19 1.19 0 0 1-.47-1.87c.08-.1.16-.18.25-.25l.4-.08s0-.04.04-.05.12-.11.18-.13c.16-.04.35-.07.55-.08.2 0 .4.03.6.07h-.03l.64.1s.12-.02.14-.04zm-16.66.24c.24-.23.54-.4.88-.45h.01a.9.9 0 0 1 .7.1v-.01a.3.3 0 0 1 .13.2v1.29l-.2-.1a1.05 1.05 0 0 0-1.4.34c-.06.09-.1.2-.1.33v2.2c0 .2 0 .2-.2.2h-1.2c-.13 0-.17-.04-.17-.17v-4.18c0-.15.06-.18.18-.18h1.19c.14 0 .2.05.18.19s0 .14 0 .24zm-13.18-1.1a.91.91 0 0 1-1.54.33.93.93 0 0 1-.04-1.2.92.92 0 0 1 1.15-.2c.04.09.1.16.16.22.15.1.25.27.25.46v.03l.02.35zm-.03.8v4.34h-.1l.03-.25v-.01-4.02H16.8v-.07zm-3.82 4.4v-3.5h.03s.04.05.03.07 0 .15 0 .22v2.98c0 .2 0 .2.22.2h1.2c.13 0 .17-.04.16-.16v-1.55-1.32l.07-.15v1.45a1.07 1.07 0 0 0 0 .17V28c0 .45 0 .37-.35.37s-.93-.05-1.36-.05zm33.69-4.34s-.05.05-.06.04l-.65-.11a3.42 3.42 0 0 0-.56-.07c-.2.01-.4.04-.58.09h.02c-.06 0-.12.08-.18.12s0 .05-.04.05l-.4.08c.22-.2.48-.32.78-.37a3.33 3.33 0 0 1 1.69.18h-.02zm-31.49-.06v4.06c.01.1.04.2.07.28l-.1-.04v-2.75-1.56zm35.31 1.8s.05.04.05.06v2.25c0 .24 0 .26.27.26h.83a1.52 1.52 0 0 1 .2 0H52.3c-.13 0-.16-.05-.16-.17v-2.4zm-40.17 2.6v-3.45c0-.06.02-.12.03-.17v3.43c0 .07-.01.14-.03.2zm32.97-.07l.07-.27v-2.7a1.85 1.85 0 0 1 0-.23v3.06c.04.06.06.16-.07.14zm-18-1.96a1.46 1.46 0 0 1 .24 0h2.42c.12 0 .18-.04.17-.17a1 1 0 0 1 0-.2v.4zm23.73 2.04a.26.26 0 0 0 .13-.28v-2.2-.14 2.6zm-30.08-1.3c-.04.05-.09.11-.13.11a3.18 3.18 0 0 1-1.38-.14h.06c.32.05.64.12.97.14.17-.01.34-.05.5-.1h-.02zm30.25-2.85a1.3 1.3 0 0 1 0-.19v-1.92a.3.3 0 0 1 0-.09zM18.49 23.1v-.33-.03c0-.2-.1-.36-.24-.46a.8.8 0 0 1-.17-.21.84.84 0 0 1 .41 1.04zm5.95.76a.72.72 0 0 1-.04-.16v-1.45a.98.98 0 0 0-.06-.24c.11-.06.1 0 .1.1v1.76zm15.81-.2a.5.5 0 0 0 .08-.16v-1.02a.68.68 0 0 0-.1-.23v-.08c.15.04.18.14.18.28v1.29zm5.39 3.25h-.25a.35.35 0 0 0 0 .1V27.84c0 .1.05.2.14.26-.13 0-.19-.08-.18-.22V26.8zm-22.8-1.7l.04.17v1.44c0 .07-.02.13-.04.19zm-6.06 3l.1.04h1.58a.63.63 0 0 1-.14.03h-1.4c-.05 0-.1-.04-.14-.07zm.06-4.3h-.06a.5.5 0 0 1 .12 0h1.44a.5.5 0 0 1 .12 0zm23.52 4.02a.77.77 0 0 1 0-.14v-1.01a.66.66 0 0 0-.1-.22l.13-.08zm-18-.56v-.33-.4a.85.85 0 0 1 0-.16 1.4 1.4 0 0 1-.01.9zm.7-4.69v.07c-.12.04-.13.13-.12.23v.64l-.04.2v-.94c-.07-.14.04-.16.16-.2zm-6.76 5.27v-1.28a1.07 1.07 0 0 1 0-.17v1.29a1.07 1.07 0 0 1 0 .17zm13.44-.02v-.42-.64c0-.08 0-.15-.12-.16l.14-.07zm13.48-4.13h-1zm-15.76 4.61v-.07l.76.07zm7.6-3.71zm-16.7 3.55h-1.48a1.2 1.2 0 0 1-.06-.27v-.01-4h1.58V28l-.04.26v-.01z"/></svg>
