<svg xmlns="http://www.w3.org/2000/svg" viewBox="0 0 64 32"><path d="M30.949 22.038l.295.243a12.141 12.141 0 0 1-6.774 2.044c-6.765 0-12.249-5.484-12.249-12.249S17.705-.173 24.47-.173c2.524 0 4.869.763 6.818 2.071l-.044-.028-.295.243c-2.789 2.432-4.541 5.99-4.541 9.959s1.752 7.527 4.525 9.945l.016.013zM39.603-.173h-.024c-2.52 0-4.861.766-6.804 2.078l.043-.027.295.243c2.789 2.432 4.541 5.99 4.541 9.959s-1.752 7.527-4.525 9.945l-.016.013-.295.243a12.149 12.149 0 0 0 6.795 2.056c6.768 0 12.255-5.487 12.255-12.255S46.381-.173 39.613-.173h-.012.001zm-7.572 2.627q-.237.186-.461.384c-2.589 2.257-4.216 5.561-4.216 9.244s1.627 6.987 4.202 9.232l.015.012q.224.199.461.384.237-.186.461-.384c2.589-2.257 4.216-5.561 4.216-9.244s-1.627-6.987-4.202-9.232l-.015-.012q-.224-.199-.461-.384zM25.779 28.54l-.333-.045c-.308-.038-.551-.102-.551-.32s.231-.384.641-.384a2.09 2.09 0 0 1 1.022.287l-.01-.005.308-.57a2.41 2.41 0 0 0-1.33-.339h.004c-.826 0-1.352.397-1.352 1.044 0 .532.397.858 1.121.961l.333.045c.391.051.57.154.57.34s-.256.397-.743.397a1.728 1.728 0 0 1-1.119-.349l.004.003-.333.551c.375.265.841.424 1.344.424l.068-.001h-.003c.942 0 1.486-.442 1.486-1.063s-.416-.858-1.128-.974zm3.459 1.365c-.352 0-.468-.218-.468-.545v-1.473h1.16v-.641h-1.16v-.993h-.718v.987h-.641v.641h.641v1.486c0 .756.295 1.204 1.128 1.204h.007c.325 0 .628-.093.884-.254l-.007.004-.205-.609c-.177.112-.39.182-.619.192h-.003zm-11.172-2.742a1.279 1.279 0 0 0-1.137.572l-.003.005a1.2 1.2 0 0 0-1.025-.578l-.054.001h.003a1.076 1.076 0 0 0-.952.476l-.002.004v-.404h-.705v3.254h.717v-1.8a.762.762 0 0 1 .755-.866l.041.001h-.002c.468 0 .711.308.711.858v1.813h.718v-1.807a.769.769 0 0 1 .81-.865h-.002c.48 0 .718.308.718.858v1.813h.692v-2.044a1.21 1.21 0 0 0-1.285-1.295h.003zm4.561.474a1.236 1.236 0 0 0-.974-.475l-.053.001h.003a1.711 1.711 0 0 0-.005 3.414h.005a1.236 1.236 0 0 0 1.023-.471l.002-.003v.397h.711v-3.261h-.711zm-.935 2.3a1.044 1.044 0 1 1 .98-1.044.974.974 0 0 1-.971 1.044h-.009zm23.248-2.3v-.397h-.698v3.254h.705v-1.839c0-.538.231-.839.692-.839h.012c.155 0 .303.031.438.086l-.008-.003.218-.641a1.488 1.488 0 0 0-.506-.09h-.027a.959.959 0 0 0-.822.464l-.002.004zm-12.813-.474a1.712 1.712 0 0 0 .048 3.415h.004l.069.001c.482 0 .924-.172 1.267-.459l-.003.003-.346-.525a1.546 1.546 0 0 1-.947.34h-.001a.904.904 0 0 1-.974-.79v-.004h2.415v-.275a1.564 1.564 0 0 0-1.53-1.704h-.001zm-.877 1.422a.84.84 0 0 1 .838-.788h.029-.001.019c.439 0 .796.351.807.787v.001zm11.345-.948a1.236 1.236 0 0 0-.974-.475l-.053.001h.003a1.711 1.711 0 0 0-.005 3.414h.005a1.236 1.236 0 0 0 1.023-.471l.002-.003v.397h.705v-3.261h-.705zm-.954 2.3a1.044 1.044 0 1 1 .98-1.044.974.974 0 0 1-.971 1.044h-.009zm7.527-2.3a1.236 1.236 0 0 0-.974-.475l-.053.001h.003a1.711 1.711 0 0 0-.005 3.414h.005a1.236 1.236 0 0 0 1.023-.471l.002-.003v.397h.711v-4.568h-.711zm-.942 2.3a1.044 1.044 0 1 1 .98-1.044.974.974 0 0 1-.971 1.044h-.009zm-13.12-2.3v-.397h-.705v3.254h.705v-1.839c0-.538.231-.839.692-.839h.012c.155 0 .303.031.438.086l-.008-.003.218-.641a1.488 1.488 0 0 0-.506-.09h-.021a.959.959 0 0 0-.822.464l-.002.004zm3.287.192c.322.004.618.114.855.297l-.003-.002.34-.57a1.695 1.695 0 0 0-1.087-.392l-.063.001h.003a1.71 1.71 0 1 0 .005 3.414h-.005a1.696 1.696 0 0 0 1.175-.393l-.003.002-.34-.57c-.234.181-.53.291-.851.295h-.001a1.045 1.045 0 0 1-.003-2.082h.004z"/></svg>
