<svg xmlns="http://www.w3.org/2000/svg" viewBox="0 0 64 32"><path d="M56.07.74a2.72 2.72 0 0 1 .42 2.31v-.02l-5.73 24.35a3.85 3.85 0 0 1-1.39 2.3c-.64.55-1.47.89-2.38.9H9.85c-.76 0-1.43-.35-1.85-.9v-.01a2.7 2.7 0 0 1-.42-2.33v.02L13.3 3.03c.18-.94.68-1.74 1.39-2.3a3.7 3.7 0 0 1 2.39-.9h37.14c.75 0 1.42.35 1.85.9zM19.17 12l1.12-4.2v-.14h-1.67q-.14.28-.98 4.2c-.1.64-.34 1.2-.7 1.69v-.01a1.35 1.35 0 0 1-.99.28c-.55 0-.83-.23-.83-.7v-.28l.14-.98.98-4.06v-.14a5.83 5.83 0 0 1-1.99 0h.04l-.15.28L13.3 12l-.14.28-.14 1.12v.52l.14.28q.55.84 2.37.84l.3.01c.72 0 1.4-.2 1.95-.57a5.77 5.77 0 0 0 1.37-2.05l.02-.04zm5.17-.85q-.14-.43-.83-.43a3.49 3.49 0 0 0-1.15.14h.02l-.28.28.14-.42-.14-.14c-.46.18-1 .29-1.57.29h-.11V11c-.01.36-.06.7-.14 1.03l.01-.04c-.1.47-.19.98-.28 1.54q-.14.41-.42 1.53h1.68v-.14c0-.1.03-.2.07-.28.05-.1.1-.21.14-.33v-.02c.05-.17.07-.36.07-.55v-.1c.02-.3.07-.59.15-.86v.03c.05-.2.1-.44.13-.68v-.02a.81.81 0 0 1 .56-.14c.19 0 .28.14.28.42-.06.52-.16 1-.3 1.45l.02-.06-.14.42c-.01.15-.03.3-.07.43v-.02c-.04.13-.06.27-.07.42h1.54l.14-.14c.01-.28.06-.54.14-.79v.02c.08-.27.13-.58.14-.9l.14-.43a3.86 3.86 0 0 0 .13-1.68v.02zm2.66.55v-.14c-.27.1-.6.14-.92.14h-.06l-.28.15h-.56c0 .15-.03.29-.07.43v-.02c-.04.12-.06.27-.07.41-.05.43-.15.8-.3 1.16l.02-.03v.1c0 .17-.05.33-.14.46-.01.25-.06.49-.15.71v-.02h1.69v-.14c.08-.16.13-.35.14-.55v-.14l.28-.84c0-.16.03-.3.07-.43v.01c.04-.12.06-.26.07-.41v-.15l.14-.28c.07-.12.12-.25.14-.4zm.21-.83l.02-.1c0-.15-.1-.27-.23-.32-.37-.28-.84-.23-1.4.14q-.55.42-.13.84c.16.07.36.1.56.1.31 0 .6-.08.84-.25.16-.07.29-.22.34-.4zm.77 4.05c.33.13.7.23 1.1.28h.02c.78 0 1.47-.32 1.96-.84.34-.34.56-.82.56-1.35v-.05q.28-1.27-.15-1.67a1.64 1.64 0 0 0-1.4-.57 2.2 2.2 0 0 0-1.81.7c-.43.39-.74.92-.84 1.52v.01q-.42 1.7.56 1.97zm3.08 8.24l-.84.15c-.37 0-.56-.1-.56-.29l.42-1.28h1.68l.27-.94h-1.68l.29-.7h1.53l.29-.98h-3.92l-.28.98h.98l-.28.7h-.98l-.29.97h.98l-.55 1.82v.05c0 .14.05.27.14.37l.28.14h2.21zm.14-5.73l.28-.56h-1.54l-.41.7c-.08.16-.17.3-.29.42h-.55l-.29.98h.73c.26 0 .5-.1.67-.28a.4.4 0 0 0 .28-.14l.28-.15h2.1l.28-.97zm-2.37-3.77l.14-.28v-.41q.28-1.28.84-1.28c.37 0 .47.37.28 1.12v.12c0 .35-.16.66-.41.85q-.15.42-.42.42zm5.45 9.51h-1.13v-.41l.56-1.96h3.08l.28-.14.41-.41.29-.84.83-2.52h-2.24l-.98.28c-.27.14-.5.28-.72.43l.02-.01.15-.7h-1.4l-1.82 6.4a.57.57 0 0 0-.14.42c0 .1.09.23.28.42h2.24zm-2.53-8.1h1.68v-.15c.16-.38.27-.82.28-1.28.03-.3.08-.55.15-.8l-.01.03c.04-.29.14-.55.29-.78v.01c.1-.09.22-.14.37-.14h.04c.18 0 .28.14.28.42-.06.52-.16 1-.3 1.45l.02-.06v.42c-.02.15-.07.3-.15.42-.06.11-.11.25-.13.4v.01h1.67v-.14c.13-.48.23-1.06.28-1.64v-.04l.15-.42a2.14 2.14 0 0 0 .14-1.65v.01q-.15-.43-.85-.43h-.05c-.33 0-.65.06-.95.15h.02a.4.4 0 0 1-.28.14h-.02a.12.12 0 0 0-.12.14l.14-.42v-.13c-.5.17-1.08.28-1.68.28l-.14.14c-.1.96-.25 1.82-.44 2.66l.02-.14q-.13.39-.41 1.53zm4.2 4.89h-1.96l.14-.56h2.24l-.14.56zm-.56-1.4c-.42.07-.8.22-1.14.42h.02l.28-.98h2.23l-.14.55zm2.1 2.38h-1.13l-.14.41v.14h-.56v-.41h-1.28l-.14 2.66c0 .18.05.28.14.28a2.27 2.27 0 0 0 1.14.14h-.02.84l.42-.98h-.81l-.15.14-.28-.28v-.7h.87c.26 0 .5-.12.67-.29a.8.8 0 0 0 .28-.56zm-.56-5.87h1.82c.06-.59.16-1.1.3-1.61l-.02.07.28-.98.14-.14h.14q2.1 0 2.93-.7a2.64 2.64 0 0 0 1.28-1.8v-.72-.1c0-.26-.05-.52-.14-.75v.02q-.41-.7-2.37-.7H38.6v.28l-.55 2.24zm5.17 8.8h.41l.28-.98h-.41l1.54-5.03h.41l.14-.42V18c0 .47.33.64.98.56h.84l.28-.98h-.28c-.18 0-.28-.05-.28-.14v-.56h-1.54c-.18 0-.58 0-1.18.07s-.96.07-1.05.07c-.32.11-.6.25-.86.42h.02l.14-.56h-1.4l-.28.98-1.54 5.03h-.28l-.28.98h2.93l-.14.28h1.4zM39.86 11.3h-.28v-.14l.56-2.24V8.8h.14l1.12.14c.47.18.6.55.41 1.12 0 .47-.28.8-.84.98a1.6 1.6 0 0 1-1.12.25zm.28 10.48h1.12L41 22.89h-1.14zm.56-1.95h1.12l-.28.98H41c-.2.13-.43.23-.69.28zm1.82-1.96l-.28.98-.7.14c-.22.06-.4.15-.56.29l.28-1.4zm6.17.98h-4.61l-.29.98h1.68l-.28.83h-1.7l-.28.84h1.54l-1.12 1.54a.4.4 0 0 1-.28.14c-.1 0-.15 0-.15.07s-.05.07-.14.07h-.41l-.27.86H43.54c.44 0 .84-.22 1.08-.55l.7-.99.14.98c.07.16.17.3.28.42l.28.14H47l.4-1h-.28c-.18 0-.28-.04-.28-.14h-.02a.12.12 0 0 1-.12-.14l-.14-1.12h-.7l.29-.28h1.68l.28-.84h-1.54l.28-.84h1.54zm-5.06-7.41a2.8 2.8 0 0 0-.83 1.66v.02q-.42 1.53.7 1.95a1.9 1.9 0 0 0 .84.14h.09c.27 0 .5-.16.6-.41v.28h1.82c.08-.94.23-1.8.44-2.63l-.03.11.42-1.68v-.15c-.25.01-.5.06-.71.14h.01a4 4 0 0 1-.97.14l-.15.14v.14a.55.55 0 0 0-.53-.41h-.03q-.7-.42-1.67.56zm.7 2.38v-.7q.56-1.28.84-1.28.7 0 .42.7v.41l-.15.28v.28l-.14.29h-.02a.12.12 0 0 0-.12.14c0 .18-.18.28-.55.28zm1.12-.56zm7.4-2.53h-.13c-.26.01-.5.06-.72.14h.02c-.25.09-.54.14-.84.14h-.14a59.71 59.71 0 0 1-.84 1.95v-.14l-.14-2.1h-.14c-.46.1-.98.2-1.53.29v.14c.02.42.07.8.15 1.18l-.01-.06c0 .18.03.35.07.5v-.01c.03.14.06.3.07.48.09.5.14 1.08.14 1.66v.17L47.83 17l-.42.41v.03a.12.12 0 0 1-.14.12h-.41l-.29.98h.98a1.12 1.12 0 0 0 1.13-.55l.56-1.13h.15q.4-.83 3.47-6.15z"/></svg>
