<svg xmlns="http://www.w3.org/2000/svg" viewBox="0 0 64 32"><path d="M1.6 19.12v-1.06h.84v-5.12H1.6v-1.07h3.35c1.54 0 2.47.71 2.47 1.92v.05c0 .7-.44 1.28-1.06 1.5h-.01a1.8 1.8 0 0 1 1.47 1.69c0 1.33-1.02 2.06-2.7 2.06zm1.99-6.19v1.98h1.28c.9 0 1.4-.35 1.4-.99s-.5-.99-1.45-.99zm0 5.13h1.43c1.1 0 1.65-.36 1.65-1.06s-.59-1.07-1.74-1.07H3.6zm10.31-2.72a.87.87 0 0 0-.84-.67h-.01a1.88 1.88 0 0 0-1.88 2.02v1.37h1.85v1.06H8.9v-1.06h1.17v-3.2h-.92v-1.07h2.01v.9a2.13 2.13 0 0 1 1.93-1.08h.11c.86 0 1.57.6 1.73 1.41v.02zm5.63.68v-.3c0-.75-.6-1.06-1.29-1.06-.6 0-1.15.25-1.56.64l-.66-.79a3.19 3.19 0 0 1 2.29-.89c1.33 0 2.37.71 2.37 2.06v2.38h.78v1.06h-1.93v-.56a2.22 2.22 0 0 1-1.83.73c-1.1 0-2.04-.56-2.04-1.67 0-1.28 1.28-1.81 2.46-1.81.5 0 .99.08 1.44.22h-.03zm0 .95c-.41-.14-.88-.22-1.37-.22-.7 0-1.38.22-1.38.86 0 .47.43.7 1.02.7.81 0 1.72-.44 1.72-1.19zm8.57 1.09v1.06h-5.38v-1.06h2.23v-3.2h-1.7V13.8h2.8v4.26zm-2.05-5.32H24.8V11.1h1.24zm3.37 5.32h.82v-3.2h-.77v-1.07h1.86v.69a2.09 2.09 0 0 1 1.83-.87h.1c1.07 0 1.93.86 1.93 1.92v2.52H36v1.06h-2.76v-1.05h.85v-2.18c0-.92-.57-1.18-1.08-1.18h-.04c-.88 0-1.6.7-1.63 1.58v1.78h.85v1.06h-2.76zm8.1-3.2h-1.4v-1.07h1.4v-1.92h1.1v1.92h2.56v1.07h-2.56v2.32a1.1 1.1 0 0 0 1.24 1.1 2.23 2.23 0 0 0 1.53-.73l.74.76a3.05 3.05 0 0 1-2.27 1.01c-1.35 0-2.34-.74-2.34-2.16zm10.6.48a.87.87 0 0 0-.84-.67h-.01a1.88 1.88 0 0 0-1.88 2.02v1.37h1.86v1.06h-4.12v-1.06h1.17v-3.2h-.92v-1.07h2v.9a2.13 2.13 0 0 1 1.94-1.08h.11c.86 0 1.57.6 1.73 1.41v.02zm7.4 2.97c-.65.61-1.54.99-2.5.99h-.32a2.83 2.83 0 0 1-2.83-2.82v-.06a2.77 2.77 0 0 1 2.91-2.78 2.84 2.84 0 0 1 2.84 3.05v-.01.19h-4.58a1.8 1.8 0 0 0 1.9 1.42h-.01.06c.7 0 1.34-.28 1.8-.74zm-4.44-2.4h3.28a1.62 1.62 0 0 0-1.58-1.28H52.7c-.78 0-1.44.54-1.63 1.27zm11.28 2.4c-.66.61-1.54.99-2.51.99h-.31a2.83 2.83 0 0 1-2.83-2.82v-.06a2.77 2.77 0 0 1 2.91-2.78 2.84 2.84 0 0 1 2.85 3.05v-.01.19h-4.6a1.8 1.8 0 0 0 1.9 1.42h.06c.7 0 1.33-.28 1.8-.74zm-4.44-2.4h3.28a1.62 1.62 0 0 0-1.58-1.28H59.56c-.79 0-1.45.54-1.63 1.27z"/></svg>
