<svg xmlns="http://www.w3.org/2000/svg" viewBox="0 0 64 32"><path d="M11.53 30.58V19.8h.12c.71.17 1.6.33 2.5.44l.11.01a20.54 20.54 0 0 0 3.24.14h-.04c1.15 0 2.25-.21 3.27-.6l-.06.03a4.05 4.05 0 0 0 1.68-1.16c.39-.47.64-1.06.71-1.7v-.01c.04-.32.07-.69.07-1.06v-5.38-.25H18.7V16.3c0 .57-.18 1.09-.5 1.51a2.4 2.4 0 0 1-1.45.87h-.01a4.72 4.72 0 0 1-1.44.04h.02a10.58 10.58 0 0 1-3.77-1.1l.06.02-.09-.03v-.17V4.99v-.04A5.13 5.13 0 0 1 15.01.1l.04-.01a6.07 6.07 0 0 1 2.05-.27h7.06v25.63c0 1.24-.45 2.37-1.19 3.26v-.01a5 5 0 0 1-3.01 1.76h-.03c-.28.05-.6.08-.92.08h-7.48zM25.74 18.8h.05c.8.61 1.74 1.06 2.78 1.27h.05a15 15 0 0 0 3.67.33h-.02c1.2-.02 2.36-.15 3.48-.37l-.12.02 1.11-.23.2-.06v-2.14l-.2.09c-.74.37-1.6.67-2.5.86l-.07.02a7.87 7.87 0 0 1-2.11.15h.02a4.26 4.26 0 0 1-1.77-.47h.03a2.98 2.98 0 0 1-1.5-1.84l-.01-.02a4.18 4.18 0 0 1 0-2.45v.03c.29-1 1.05-1.78 2.03-2.08h.02a5.29 5.29 0 0 1 2.13-.24H33a9.9 9.9 0 0 1 3.9 1.1l-.05-.03.1.04h.04v-2.16c-.18-.04-.35-.1-.54-.13-.79-.13-1.57-.28-2.36-.39a16.55 16.55 0 0 0-3.11-.1H31c-.9.04-1.75.16-2.58.36l.1-.02c-.92.2-1.73.55-2.44 1.03l.02-.01-.38.28v-.14-6.51-.04A5.13 5.13 0 0 1 29 .17l.03-.01a5.12 5.12 0 0 1 1.84-.33h7.45v25.61c0 .75-.16 1.47-.45 2.11l.01-.03a5.07 5.07 0 0 1-3.75 2.97h-.03c-.24.05-.51.08-.8.09h-7.57zm14.18-8.53v-.19-5.03-.1c0-1.54.67-2.9 1.75-3.84a4.84 4.84 0 0 1 2.67-1.22h.02c.25-.03.53-.06.82-.06h7.35V25.47a5 5 0 0 1-1.76 3.82 4.77 4.77 0 0 1-2.58 1.2h-.02a7.1 7.1 0 0 1-.95.06h-7.3v-10.4h7.93c.6 0 1.17-.12 1.7-.33h-.04c.5-.19.91-.51 1.2-.92h.01a2.27 2.27 0 0 0-.55-3.2v-.01a3.6 3.6 0 0 0-1.5-.6h-.02c-.14 0-.28-.03-.42-.07a4.3 4.3 0 0 0 1-.32l-.03.01a2.25 2.25 0 0 0 1.28-1.67v-.02a2.16 2.16 0 0 0-1.07-2.3 3.34 3.34 0 0 0-1.51-.46h-.01q-.59-.03-1.18-.03h-6.8zm2.5 8.24v-2.67h2.98a1.34 1.34 0 0 1 .38 2.63h-.01a1.8 1.8 0 0 1-.43.05h-2.91zm.02-4.24v-2.43h2.73c.32 0 .62.12.85.32a1.28 1.28 0 0 1 .3 1.35l.01-.01c-.16.45-.57.77-1.06.78H42.5z"/></svg>
