<svg xmlns="http://www.w3.org/2000/svg" viewBox="0 0 64 32"><path d="M18.18 18.97a5.16 5.16 0 0 1-1.84 3.91q-1.85 1.7-5.37 1.7h-.54a24.2 24.2 0 0 1-5.7-.68l.16.03v-4.16a12.68 12.68 0 0 0 5.14.96H10q2.89 0 2.89-1.6 0-1.28-1.93-1.28-6.4-.48-6.4-5.45v-.02c0-1.53.64-2.92 1.67-3.9q1.7-1.68 5.21-1.68h.1c2.14 0 4.2.35 6.13 1l-.14-.04v4l-1.28-.48c-1.2-.37-2.57-.6-3.99-.64h-.01q-2.73 0-2.73 1.44c0 .86.64 1.29 1.92 1.29q6.73.48 6.73 5.6zm5.93 5.45h-4.65V7.75l4.65-.96v9.29q2.56-3.2 2.56-4.49h5.44a20.9 20.9 0 0 1-3.4 6.3l.04-.05q2.56 4.32 3.04 6.56h-5.6a13.99 13.99 0 0 0-2.11-5.17l.03.05zm13.29 0h-4.64V17.2q0-5.6 6.4-5.77a1.89 1.89 0 0 1 1.14 0h-.02v3.84q-1.76 0-2.32.73a4.09 4.09 0 0 0-.55 2.5v-.02zm6.57-14.1q-2.25 0-2.25-2.24t2.25-2.24 2.24 2.24-2.24 2.24zm2.24 14.1h-4.49V11.6h4.49zm2.08-16.66l4.48-.96V24.4H48.3zM59.5 24.42h-4.64V7.75l4.64-.96z"/></svg>
