<svg xmlns="http://www.w3.org/2000/svg" viewBox="0 0 64 32"><path d="M49.668 15.138q0 8.386-4.523 12.114-3.998 3.325-10.385 3.325H14.395V-.173H34.76q6.406 0 10.385 3.594a11.524 11.524 0 0 1 3.299 4.713l.026.079c.761 1.932 1.203 4.17 1.203 6.511 0 .146-.002.291-.005.436v-.022zm-1.999 0q0-6.791-3.844-10.25-3.466-3.062-9.462-3.062H16.387v26.753h17.976q13.306 0 13.312-13.44zm-26.49-5.861a3.203 3.203 0 0 0-3.203 3.203 3.204 3.204 0 0 0 5.458 2.262c.578-.579.935-1.379.935-2.261s-.357-1.682-.935-2.261a3.08 3.08 0 0 0-2.22-.942h-.037.002zm-2.928 17.296h5.727v-9.449h-5.727zm23.563-11.038h3.991q0 11.051-12.377 11.051h-6.791V15.535h.641a2.787 2.787 0 0 0 1.083-.14l-.02.006c.305-.1.571-.235.811-.404l-.01.006a3.15 3.15 0 0 0 .634-1.042l.007-.022a3.282 3.282 0 0 0 .134-1.208l.001.011a4.38 4.38 0 0 0-.068-.667l.004.026a3.725 3.725 0 0 1-.064-.522v-.009a3.699 3.699 0 0 0-.34-.541l.007.009a.8.8 0 0 1-.198-.392l-.001-.005a1.472 1.472 0 0 0-.874-.562l-.01-.002a2.756 2.756 0 0 0-1.072-.134h.009-.641V4.35h6.791q11.711 0 12.377 9.981h-2.556V9.943h-1.467zm-13.313-2.793v.929l-.269.397c-.179.179-.314.269-.397.269h-1.198v-3.203H27.7a.774.774 0 0 1 .531.268l.001.001c0 .09.09.224.269.397zm6.791 1.596H32.23v-1.057h2.665v-1.204H32.23v-.935h2.928V9.944h-4.26v5.593h4.395zm5.99 1.197l-2.127-5.593h-1.467l-2.127 5.593h1.467l.397-1.198h1.999c.116.467.252.866.417 1.249l-.02-.052zm-3.325-2.395l.269-.801c.072-.189.12-.407.134-.634v-.006c.253.422.439.916.528 1.442l.003.025z"/></svg>
