<svg xmlns="http://www.w3.org/2000/svg" viewBox="0 0 64 32"><path d="M18.16 15.2h15.26q0 6.33-3.7 9.4-3.7 2.93-11.41 2.93-8.02 0-11.53-2.92-3.58-3.1-3.58-9.4 0-6.17 2.78-8.8 3.7-3.54 12.33-3.54 8.01 0 11.87 3.24 3.08 2.62 3.08 8h-15.1zm37.46-1.07H34.34V3.33H55.17c1.48 0 2.82.62 3.77 1.62 1 .95 1.62 2.28 1.62 3.76v.13c0 1.39-.53 2.65-1.4 3.6a5.06 5.06 0 0 1-3.53 1.68h-.01zm-.15 1.07c1.5.12 2.83.8 3.77 1.85a5.78 5.78 0 0 1 1.62 4.17v.09c0 1.5-.62 2.86-1.62 3.83a5.75 5.75 0 0 1-3.76 1.78H34.32V15.2z"/></svg>
