<svg xmlns="http://www.w3.org/2000/svg" viewBox="0 0 64 32"><path d="M32.03 28.97H4.98A4.98 4.98 0 0 1 0 24v-.15V9.66 6.5v-.12C0 4.74.8 3.28 2.06 2.4l.01-.01a4.93 4.93 0 0 1 2.79-.95H58.98c.77 0 1.5.16 2.16.46l-.03-.01a4.83 4.83 0 0 1 2.93 4.43v.06c.05 2 0 4.02 0 6.03V23.98a4.97 4.97 0 0 1-4.97 4.97H32.03zm1.48-25.52H5.17h-.02a3.12 3.12 0 0 0-3.12 3.21V23.89c0 1 .49 1.88 1.24 2.42.53.4 1.2.65 1.93.65H33.49zm4.41 14.26c.3.46.74.8 1.27.97h.02a3 3 0 0 0 3.63-1.55c.3-.58.46-1.26.46-1.98v-.08V15c0-.9-.3-1.72-.82-2.37a2.91 2.91 0 0 0-4.56.08v.01l-.2.2v-1.15h-2.2v9.69h2.4zm14.06-5.96l.15.4.73 1.87 1.78 4.48c.05.09.07.2.07.3 0 .18-.06.34-.17.47-.19.29-.5.47-.87.47-.35 0-.69-.03-1.07-.06l-.14 1.76a5.64 5.64 0 0 0 1.67.16h-.01.01c1 0 1.85-.55 2.3-1.37v-.01c.17-.27.33-.6.47-.92l.01-.05L59.8 12l.05-.22v-.01h-2.36l-1.43 4.48-1.49-4.48zm-6.82.28l.07 1.56c.57-.14 1.1-.28 1.64-.39a2.87 2.87 0 0 1 1.3.06h-.01a.97.97 0 0 1 .8 1.06 1.99 1.99 0 0 1-.32 0 6.03 6.03 0 0 0-1.73 0l.03-.01c-.67.06-1.28.3-1.8.65h.02a2.13 2.13 0 0 0-.1 3.31 2.81 2.81 0 0 0 3.87-.42l.2-.22.05 1.02h2.13c0-1.05-.03-2.1-.05-3.13v-1.2-.06c0-1.22-.85-2.24-2-2.5h-.01a6.15 6.15 0 0 0-2.84 0h.04c-.43.01-.83.15-1.28.28zm-34.21.88v-1.13h2.07v6.19a5.7 5.7 0 0 1-.2 1.52l.01-.04c-.23.88-.9 1.57-1.75 1.83h-.02c-.41.14-.9.23-1.4.27h-.02a7.98 7.98 0 0 1-2.94-.25h.06l-.35-.1a.87.87 0 0 1-.15-.1v.01l.15-1.78c.11.04.2.06.28.1a4.52 4.52 0 0 0 2.37.42h-.01.08c.93 0 1.68-.73 1.72-1.65 0-.22 0-.43.04-.73-.1.08-.18.16-.25.24a2.93 2.93 0 0 1-4.89-.89v-.02a4.67 4.67 0 0 1 .03-3.55l-.02.03a2.88 2.88 0 0 1 4.9-.64l.2.25zm-3.12 2.2c.05.34.13.63.22.9l-.01-.03a1.33 1.33 0 0 0 2.21.43 1.97 1.97 0 0 0 .18-2.46v.01a1.42 1.42 0 0 0-1.4-.55c-.48.06-.87.4-1 .86v.01c-.07.22-.14.5-.2.78v.05zm19.94-3.53h.1c.77 0 1.5.17 2.15.48l-.03-.02a3.42 3.42 0 0 1 1.89 3.64v-.02a3.44 3.44 0 0 1-3.04 3.06h-.01a4.78 4.78 0 0 1-3.07-.41l.03.01a3.32 3.32 0 0 1-1.85-3.44v.02a3.42 3.42 0 0 1 3.15-3.24l.68-.08zm1.7 3.62v-.14c0-.39-.1-.76-.26-1.08v.01c-.22-.46-.69-.77-1.23-.77h-.16c-.53 0-.99.3-1.2.75v.01a2.6 2.6 0 0 0 0 2.38v-.01c.2.47.68.8 1.22.8h.12c.55 0 1.02-.32 1.25-.78v-.01a2.25 2.25 0 0 0 .26-1.16zm-10.72 3.44v-6.87h2.1V13c.28-.35.5-.64.75-.92.25-.26.6-.44 1-.46h1.16l-.1 1.92h-.94c-.65 0-1.21.42-1.4 1.01l-.01.01c-.1.32-.17.68-.17 1.06v3.02H20zm-3.97-6.88h2.26c.08.3.1 6.24 0 6.86H14.8c-.07-.28-.1-6.28-.02-6.86zm2.3-1.2h-2.35v-.81-.81a10.7 10.7 0 0 1 2.4 0h-.04zm20.84 4.54c0-.41.13-.8.35-1.1a1.35 1.35 0 0 1 2.24.03 2.31 2.31 0 0 1-.05 2.39v-.01a1.28 1.28 0 0 1-1.98.19 1.92 1.92 0 0 1-.55-1.5zm11.06.48v.12a1.47 1.47 0 0 1-1.84 1.42h.01a.7.7 0 0 1-.57-.63v-.1c0-.3.18-.57.44-.67.17-.09.36-.14.55-.17h.01c.47.02.91.03 1.4.03z"/></svg>
