<svg xmlns="http://www.w3.org/2000/svg" viewBox="0 0 64 32"><path d="M31.97 22.77c-.09.34-.17.75-.27 1.1l-.44 1.45h1.41l-.44-1.45c-.1-.34-.2-.76-.26-1.1zm-5.31-.08h-.07c-.19 0-.37.02-.55.05h.02v1.99a1.95 1.95 0 0 0 .5.04c.77 0 1.24-.4 1.24-1.08s-.43-1-1.14-1zM17.84-.17v30.75h28.38V-.17zm10.5 25.16a2.41 2.41 0 0 1-1.78.63h-.06c-.15 0-.3 0-.45-.03h.02v2.22h-1.02v-5.77a8.28 8.28 0 0 1 1.57-.12h.18c.56 0 1.07.18 1.48.49.34.3.55.74.55 1.24v.09c0 .48-.19.92-.49 1.24zm5.04 2.8l-.51-1.66h-1.79l-.48 1.66h-1.06l1.8-5.87h1.28l1.83 5.87zm4.3-2.47v2.47h-1.04v-2.45l-1.78-3.42h1.17l.68 1.5.48 1.17c.15-.37.3-.74.5-1.16l.68-1.5h1.16zm7.8-5.52h-26.9V.54h26.9zM27.5 6.58l2.6 10.08h3.47l5.28-12.62h-3.43l-3.39 8.6-1.39-7.32a1.53 1.53 0 0 0-1.5-1.28h-5.57l-.07.36c1.2.25 2.28.63 3.28 1.11l-.08-.03c.43.2.74.61.8 1.1z"/></svg>
