<svg xmlns="http://www.w3.org/2000/svg" viewBox="0 0 64 32"><path d="M5.43 16.04c-.72.06-1.38.32-1.93.7h.01c-1.52 1.33-.64 3.67 2.47 3.67 1.77 0 3.54-1.14 4.93-2.9-2-.96-3.64-1.67-5.48-1.47zM17.1 5.46H3.8a3.16 3.16 0 0 0-3.16 3.1v13.29a3.12 3.12 0 0 0 3.12 3.1h13.33a3.16 3.16 0 0 0 3.17-3.1v-.13s-5.06-2.09-7.7-3.35c-1.67 2.09-3.89 3.41-6.22 3.41-3.92 0-5.26-3.41-3.36-5.63a3.65 3.65 0 0 1 2.12-1.2h.03c1.64-.38 4.3.25 6.77 1.07.42-.76.79-1.64 1.05-2.57l.02-.08H5.28v-.73h3.93V11.1H4.44v-.75h4.81V8.37c0-.18.14-.31.3-.31h1.94v2.33h4.72v.7h-4.75v1.4h3.84a15.92 15.92 0 0 1-1.68 4.18l.04-.08 3.1 1.08c.96.38 2.13.73 3.33.98l.15.03V8.56a3.12 3.12 0 0 0-3.12-3.1h-.03zm17.18 5.11v8.6h2.02v-8.96h-1.58c-.31-.02-.44.11-.44.36zm-5.55-.5a.47.47 0 0 0-.38.26L24.1 19.1h1.45l1.14-2.4h3.42l1.14 2.4h2.22l-4.18-9.02zm-1.65 5.83l1.33-2.84 1.33 2.84zm20.75-2.62c-.24-.27-.54-.5-.87-.64h-.02a2.14 2.14 0 0 0-1.14-.26h-.07c-.36 0-.7.07-1.02.2h.02c-.32.08-.6.24-.83.44v-.64h-1.33c-.44 0-.76 0-.7.82v8.27h2.03v-2.28c.17.06.36.11.56.12H45.26c.47 0 .91-.1 1.32-.26h-.02c.42-.2.78-.48 1.07-.81.3-.34.54-.74.7-1.18v-.03c.17-.4.26-.89.26-1.38v-.14-.03c0-.42-.07-.82-.2-1.2v.03c-.13-.4-.32-.74-.57-1.04zm-1.59 3.67c-.06.32-.19.5-.25.76-.08.21-.2.38-.38.5a.84.84 0 0 1-.5.2H45c-.15 0-.3-.02-.42-.07-.28-.11-.51-.34-.63-.63a.93.93 0 0 1-.07-.45V14.2c.07-.12.16-.23.26-.31.13-.07.2-.2.32-.26.09-.07.19-.14.3-.19.1-.05.21-.07.33-.07H45.16c.2 0 .37.08.5.2.13.15.25.31.36.49l.01.01c.12.24.2.51.26.8v.02a6.03 6.03 0 0 1 .06 1.15c0 .33-.04.66-.12.98v-.03zm8.36-4.09a2.21 2.21 0 0 0-.87-.37h-.02a4.95 4.95 0 0 0-3.76.58l.03-.01.44.7a3.37 3.37 0 0 1 2.02-.82h.06a.8.8 0 0 1 .33.06c.06 0 .18.13.25.2l.2.37a1.72 1.72 0 0 1 .05.57v.7l-.25.06c-.26.07-.57.2-.82.26s-.57.19-.82.31c-.31.14-.56.26-.8.4l.04-.02c-.23.12-.42.26-.57.44a2.9 2.9 0 0 0-.37.56l-.01.01a1.94 1.94 0 0 0 0 1.4c.05.23.18.43.37.56.17.18.4.32.64.38.25.07.53.12.82.13h.1c.17 0 .33-.02.49-.07h-.01c.16 0 .31-.05.44-.13l.38-.19c.06-.06.19-.12.31-.25v.5h2.03v-5c0-.27-.08-.53-.2-.76-.13-.22-.3-.4-.5-.56zm-1.42 4.9l-.57.38c-.15.07-.32.12-.5.13-.13 0-.2 0-.26-.06s-.13-.07-.2-.2-.06-.19-.12-.3a.79.79 0 0 1-.07-.33v-.06-.06a.6.6 0 0 1 .13-.38c.08-.19.2-.34.38-.44l.57-.38c.17-.12.35-.23.56-.3l.01-.01h.07zm-15.1-5.16v6.52h2.02v-6.9h-1.58c-.32 0-.44.13-.44.38zm23.9-.24l-1.84 4.12-2.09-4.12h-2.2l3.28 6.33c-.06.35-.16.67-.32.96l.01-.01c-.5.64-2.15.57-2.15.57l.06 1.2h1.32c1.4 0 1.92-1.33 2.03-1.58l3.35-7.47zm-21.87-2c0 .5-.46.9-1.02.9s-1-.4-1-.9c0-.49.45-.9 1-.9s1.02.41 1.02.9z"/></svg>
