<svg xmlns="http://www.w3.org/2000/svg" viewBox="0 0 64 32"><path d="M26.87 28.86H.64v-.06l.1-.5.18-.86.17-.85.2-.9.16-.88.17-.86.19-.9.18-.89.16-.78.12-.6.17-.85a56.42 56.42 0 0 0 .35-1.72 94.58 94.58 0 0 0 .34-1.72l.18-.84.14-.7.22-1.09.27-1.32.2-1.02.15-.7.2-.84.19-.92.18-.87.17-.84.2-.92.2-.92.17-.64.27-.59-.02.04.18-.34.17-.22a5.31 5.31 0 0 1 .76-.79l.37-.28.38-.23.37-.2.4-.16.56-.19a9.22 9.22 0 0 1 1.52-.31l.39-.05h52.53v.06l-.1.5-.24.92-.17.84-.19.85-.19.92-.34 1.72-.17.8-.18.87-.2.92-.17.84-.18.87-.19.92-.17.83-.18.87-.17.92-.17.83-.2.93-.17.8-.17.84-.19.93-.16.88-.18.87-.19.92-.17.84-.17.86-.2.92-.1.44-.1.3c-.07.17-.16.4-.22.5l-.24.4-.24.35-.36.4-.27.26-.26.2-.34.22-.38.2a7.65 7.65 0 0 1-1.03.4l-.4.1-.41.09c-.18.04-.52.09-.76.12l-.46.05zm-9.34-6.78h.69v-.05a.56.56 0 0 0 0-.16c0-.04 0-.23.05-.4l.14-.92.17-1.07.12-.77c0-.1.03-.2.06-.29v.01l.1.15.07.15.34.35.44.18.51.07h.66l.7-.18.2-.1c.15-.07.29-.15.42-.23h-.02l.23-.14.2-.2c.13-.13.24-.26.35-.4h.01l.14-.22.1-.16c.07-.12.15-.27.21-.42l.01-.02c.08-.18.2-.49.26-.7l.12-.38.06-.33.1-.64.04-.34v-.57l-.13-.58-.1-.21-.08-.3-.41-.43-.49-.26-.54-.13h-.53l-.6.07-.5.13-.2.1c-.16.06-.28.13-.4.2h.02l-.22.15-.12.09-.08.06.05-.28.06-.32v-.04h-1.16l-.1.64-.2 1.22-.18 1.04-.2 1.03-.19 1.08-.17.93-.18.96-.19 1.05-.19.98-.1.55v.07zm2.97-3.67h-.6l-.36-.17-.24-.23-.08-.2c-.04-.1-.08-.2-.1-.32l-.01-.01-.04-.18v-.55l.08-.43.18-.98.18-1 .09-.44.17-.15c.1-.09.22-.17.34-.24l.02-.01.17-.1.2-.06.22-.07h.58l.46.1.33.16.14.14.14.14.08.15c.04.1.09.22.12.34v.01l.06.2v1.21l-.09.36c-.04.2-.13.5-.19.64l-.1.3-.14.26-.26.43v-.02c-.06.1-.14.18-.22.26l-.23.18-.11.09-.54.18zm6.6.87h.69l.7-.09c.19 0 .52-.09.74-.13l.39-.08v-.14c0-.08.05-.32.1-.52l.07-.38-.12.06c-.07 0-.27.1-.45.16l-.33.11-.7.14h-1.16l-.19-.05a2.92 2.92 0 0 1-.35-.15l.01.01-.15-.08-.26-.23-.19-.34-.13-.43v-.86l.05-.35.06-.35h4.5l.05-.23c0-.12.08-.38.1-.57l.05-.34v-.59l-.1-.43-.09-.14a1.43 1.43 0 0 0-.39-.45l-.27-.2-.16-.07-.55-.13-.68-.07h-.64l-.75.15-.24.1a4.2 4.2 0 0 0-.47.21h.03a3.1 3.1 0 0 0-.36.23h.01a3.84 3.84 0 0 0-.58.61v.01c-.09.11-.17.25-.24.39l-.01.02c-.07.12-.14.3-.18.38l-.15.4s-.11.37-.15.55c-.05.14-.1.46-.13.64l-.05.32v.95l.05.2.12.4v-.02c.04.13.1.23.15.33v-.01c.06.1.13.2.2.28a2.21 2.21 0 0 0 .62.46h.02l.18.09.27.06c.14.03.36.08.48.09s.36.08.55.08zm.59-4.49h-1.6l.09-.24.17-.42.1-.2.42-.42.2-.1.32-.13h.02c.13-.03.28-.04.44-.05h.81l.36.17.1.1c.05.05.1.11.13.18l.05.09v.37l-.06.61zm9.5 4.49h.34l.4-.05c.22 0 .5-.07.64-.1l.5-.1.27-.1.08-.31.09-.5a.81.81 0 0 0 0-.2h-.05c-.1.05-.21.1-.33.14h-.02l-.3.12-.88.17h-.74l-.43-.14-.32-.28-.21-.4-.1-.53v-.69l.12-.82.07-.22.09-.32.13-.36v.02c.05-.12.15-.33.22-.44l.12-.21.3-.31.33-.2.2-.06.42-.1h.02l.24-.04h.35l.34.03.82.17.16.07.18.06.05-.25v-.01c0-.14.07-.38.1-.53.01-.08.03-.18.03-.28a1.7 1.7 0 0 0-.27-.04l-.88-.07-.6-.03-.87.06-.64.13-.2.08c-.15.06-.27.12-.38.2l.01-.02-.25.16-.33.3-.24.24-.14.2c-.1.14-.19.3-.27.48l-.02.03-.1.34-.12.33-.2.64-.08.33v1.86l.19.48.22.34.34.35.38.19.24.07.4.1h.03a5.5 5.5 0 0 0 .55 0h-.01zm5.21 0h.43l.54-.14.17-.09c.14-.06.25-.13.36-.2h-.01c.12-.08.23-.17.33-.26.1-.1.2-.2.28-.32a.84.84 0 0 1 .14-.16c0 .12-.02.23-.04.34v-.02c-.02.15-.04.33-.04.5V19.15h1.16v-.9l.09-.6.16-1.06c.04-.26.16-.74.16-1l.18-.96.08-.47v-.79l-.18-.37-.08-.11-.13-.12-.2-.12-.2-.1-.6-.13h-.82l-.53.03c-.3 0-.7.06-.91.08l-.38.05h-.52l-.04.18c0 .1-.08.34-.13.53l-.08.35v.01l.32-.07h-.01l.77-.16.48-.08.41-.05H44l.55.1.37.18.2.31v.49l-.1.54h-2.27l-.37.1c-.2.05-.37.1-.53.18l.03-.01a1.75 1.75 0 0 0-.44.22l-.24.15-.19.19-.3.34v.01c-.07.12-.14.25-.2.39l-.01.01-.1.25-.1.55v.58l.08.49.09.16c.06.1.12.2.2.28h-.01l.1.12.4.23.21.07.4.09h.62zm.38-.88h-.26l-.17-.04a1.8 1.8 0 0 1-.32-.12l-.13-.07-.08-.1a1.5 1.5 0 0 1-.14-.21v-.01l-.08-.13v-.62l.05-.18c.05-.16.1-.29.17-.41l-.01.02.1-.2.38-.4.18-.09.2-.1.52-.1h1.7l-.05.27a9.43 9.43 0 0 1-.3 1.1l-.09.26c-.03.08-.07.15-.12.21l-.1.19-.2.18c-.06.07-.14.13-.21.19a.63.63 0 0 0-.15.08l-.11.07-.52.17zm10.33.9h.3l.29-.04c.16 0 .36-.07.44-.1.13-.04.25-.08.36-.14h-.02l.2-.09.33-.3.17-.23.19-.26V18.08v.16c0 .1 0 .23-.04.32s-.04.26-.05.37v.22h1.22v-.43l.1-.81a39.48 39.48 0 0 1 .32-2.21l.15-.84.17-.99.19-1.02.17-.93.18-.96.17-.87.08-.39h-1.36v.2c0 .11-.06.47-.12.8l-.19 1.17-.1.68v.11h-.06l-.35-.1-.3-.07-.46-.1-.4-.03-.7.06-.64.17-.6.3-.45.32-.2.21-.33.4v.02l-.15.2-.17.37c-.1.2-.22.46-.26.58s-.13.39-.18.6l-.1.38-.04.51-.05.5.08.79.05.14c0 .08.07.22.1.31l.07.17.24.33.28.23.2.1c.1.05.23.1.37.14h.02c.1.04.24.07.37.09h.02c.1-.02.32 0 .5 0zm.54-.9h-.4a1.74 1.74 0 0 1-.33-.1h.02l-.16-.05-.25-.22-.2-.38-.09-.4v-.88l.1-.73.08-.25.08-.28v-.02l.1-.26.19-.4a3.13 3.13 0 0 1 .5-.69l.28-.22h.01l.14-.1.5-.16h1.05l.3.08.39.12.09.04v.09l-.08.46-.16.9-.18.93c-.04.24-.1.54-.14.64l-.11.4a2.6 2.6 0 0 1-.14.37v-.01a1.75 1.75 0 0 1-.4.57h.01c-.08.07-.17.14-.27.2v.01l-.18.12-.5.17zm-46.72.72h.76l.06-.34.13-.8.17-1.04.2-1.1.16-.9c.02-.17.06-.32.1-.47v.03h4.14l-.04.18-.13.7-.13 1.1-.18.93-.18 1.02-.11.64v.03h1.58l.03-.2c0-.1.05-.3.07-.43l.1-.64.15-.92.2-1.13.17-1.04.18-.96.19-1.02.18-.97.18-.98.15-.77.05-.23h-1.6v.15c0 .08-.06.31-.09.52l-.14.8-.17 1-.15.92-.05.35H8.67c0-.1.02-.2.04-.3v.02c0-.15.07-.4.1-.57l.15-.73c.05-.23.1-.52.1-.64s.06-.33.08-.45l.12-.6.08-.4v-.05H7.79l-.05.27c0 .15-.06.37-.08.49l-.13.8-.35 2.2L7 14.73l-.17.93-.18.92-.17.9c-.04.2-.1.46-.1.54s-.07.34-.12.56l-.08.46v.05zm8.54 0h.69v-.05a.66.66 0 0 0 0-.16c0-.06.04-.38.1-.7l.18-1.18.21-1.05.18-.94.17-.9.2-1 .12-.6h-1.37l-.05.41c0 .23-.1.68-.16 1l-.18 1.1-.17 1-.17.92-.18.92-.16.8-.08.37v.07zm15.97 0h.67v-.28c0-.16.06-.48.09-.71l.16-1.02a31.84 31.84 0 0 1 .44-2.17c.03-.11.07-.2.12-.3v.01c.08-.18.17-.33.26-.48v.02l.14-.21.38-.36.48-.23h.73l.18.05.2.05v-.08l.07-.46.08-.41a2.72 2.72 0 0 0-.6-.18h-.18l-.2.03a2.6 2.6 0 0 0-.4.1h.01a2.1 2.1 0 0 0-.34.18c-.12.08-.22.16-.32.26-.11.11-.22.23-.32.36l-.21.3-.05.06v-.13c0-.07.06-.3.1-.5l.08-.44v-.06h-1.1v.08l-.09.56-.16 1-.17 1.04-.17 1-.18.92-.2.99-.13.7c0 .13-.05.24-.05.25zm16.08 0h.7v-.42l.07-.52.16-1.02.12-.77c0-.14.09-.46.14-.7a5.76 5.76 0 0 1 .2-.78c.03-.12.08-.23.13-.33l.12-.26.35-.46.18-.14c.11-.08.23-.16.36-.23h.02l.17-.1h.82l.3.1v-.1c.03-.17.05-.33.09-.48v.03l.07-.36-.08-.03-.19-.11-.16-.05h-.57l-.46.16-.35.2-.44.48-.13.19a.86.86 0 0 1-.13.17s0-.22.08-.47.1-.5.1-.53v-.07h-1.2s0 .22-.06.46-.1.7-.16 1.01l-.19 1.22-.17 1-.18.92-.18.96-.16.77-.05.3zm-30.7-7.76H17l.3-.1.28-.27.14-.37v-.54l-.13-.2-.22-.15h-.47l-.32.14-.2.2-.15.35v.54l.14.27.27.12z"/></svg>
