<svg xmlns="http://www.w3.org/2000/svg" viewBox="0 0 64 32"><path d="M20.33 26.22c0 .67-.32 1.26-.81 1.63a2.38 2.38 0 0 1-1.78.68l-.16.01c-.66 0-1.24-.32-1.6-.81v-.01c-.41-.37-.67-.9-.68-1.5h.68a1.47 1.47 0 0 0 .4 1.09c.38.3.85.5 1.35.54h.01q1.77 0 1.77-1.63 0-1.09-2.04-1.5a4.23 4.23 0 0 1-1.51-.69v.01a1.66 1.66 0 0 1-.4-1.23q0-2.03 2.18-2.03h.1c.54 0 1.03.2 1.4.54.4.3.67.8.67 1.35h-.7q0-1.22-1.5-1.22c-1 0-1.5.46-1.5 1.36q0 .82 1.37 1.23 2.74.55 2.74 2.18zm5.71-2.31a2.15 2.15 0 0 0-2.05-.96q-2.85 0-2.85 2.73v.06a2.8 2.8 0 0 0 2.8 2.8H24.1c.82 0 1.53-.44 1.93-1.09v3.13h.68v-7.49h-.68zm.14 1.77q0 2.17-2.18 2.17t-2.18-2.17q0-2.18 2.18-2.18t2.18 2.18zM41.15 2.95v-.09c0-.84-.34-1.6-.89-2.15a2.88 2.88 0 0 0-2.08-.88H25.9h-.03a3.04 3.04 0 0 0-2.96 3.03V15.2a3.02 3.02 0 0 0 3 3h12.24a3.02 3.02 0 0 0 3-3zm-3.27 10.9c0 .72-.32 1.08-.95 1.08h-9.8c-.64 0-.95-.36-.95-1.09V4.18a.84.84 0 0 1 .96-.95h-.01 9.91a.85.85 0 0 1 .84.96zm-5.85 9.11h.68v5.45h-.68v-.82a1.6 1.6 0 0 1-1.64.95l-.24.01c-.68 0-1.28-.32-1.67-.82a2.95 2.95 0 0 1-.41-1.78v-3h.7v3q0 1.92 1.63 1.92h.06c.4 0 .76-.15 1.03-.4a2.2 2.2 0 0 0 .54-1.66zm2.45-15.92V11a.48.48 0 0 1-.55.54h-3.82a.48.48 0 0 1-.54-.55V7.05a.48.48 0 0 1 .55-.54h-.01H34a.48.48 0 0 1 .48.54zm4.21 16.88a2.72 2.72 0 0 0-2.07-.96h-.2a2.9 2.9 0 0 0-1.95.75 2.56 2.56 0 0 0-.81 1.98v.06c0 .78.34 1.49.88 1.97.51.5 1.2.81 1.98.81h.08c.86 0 1.63-.42 2.09-1.08v.95h.68v-5.3h-.67zm0 1.76q0 2.18-2.17 2.18t-2.18-2.18q0-2.15 2.18-2.15t2.18 2.15zm4.23-2.72v.68q-1.5 0-1.5 1.63v3.13h-.68v-5.3h.68v.67q.27-.81 1.5-.81zm3 0a2.8 2.8 0 0 0-2.73 2.72v.07a2.8 2.8 0 0 0 2.8 2.8l.06-.01h.08c1.19 0 2.19-.8 2.48-1.9v-.02h-.66a2.2 2.2 0 0 1-1.97 1.22h-.08q-1.76 0-2.04-1.92h4.9v-.14-.06a2.8 2.8 0 0 0-2.86-2.8zm-2.05 2.45a1.98 1.98 0 0 1 2.19-1.92h-.01q1.77 0 2.04 1.92z"/></svg>
