<svg xmlns="http://www.w3.org/2000/svg" viewBox="0 0 64 32"><path d="M27.3 19.28a1.1 1.1 0 0 1-.52.12h-.02c-.43 0-.8-.24-1-.6l-.08-.16-3.2-6.94a.5.5 0 0 1-.04-.25c0-.3.24-.55.53-.56.14 0 .27.05.37.13l3.75 2.66c.28.17.61.27.97.28.22 0 .43-.04.61-.12L46.3 6C43.1 2.25 37.9-.17 32.03-.17c-9.6 0-17.41 6.5-17.41 14.53 0 4.35 2.34 8.33 6.02 10.98a1.05 1.05 0 0 1 .4 1.29v-.01c-.28 1.09-.77 2.86-.77 2.95-.05.13-.08.28-.08.44v.01c0 .3.24.54.54.55.13 0 .23-.04.32-.12l3.79-2.22c.27-.17.58-.27.93-.29.19.01.37.04.54.1l-.02-.01c1.7.51 3.66.81 5.68.81h.07c9.6 0 17.42-6.5 17.42-14.53a12.7 12.7 0 0 0-2.02-6.78l.03.05L27.4 19.2z"/></svg>
