<svg xmlns="http://www.w3.org/2000/svg" viewBox="0 0 64 32"><path d="M14.59 12.1h-4.3l.02-.25c0-.42-.1-.83-.27-1.19v.02q-.38-.53-2.1-.53a5.22 5.22 0 0 0-2.26.32l.02-.02q-.54.31-.54 1.35l-.02.19c0 .42.2.8.5 1.04.26.15.58.24.91.25l.87.06q2.78.19 3.48.26c1.22.03 2.33.47 3.21 1.18h-.01c.51.49.85 1.15.93 1.9v.01c.06.47.09 1.01.09 1.56v.06a8.39 8.39 0 0 1-.4 3.1l.01-.06q-.71 1.76-3.2 2.23a18.35 18.35 0 0 1-3.22.2h.02l-.85.01c-1.48 0-2.92-.16-4.31-.47l.13.03A3.3 3.3 0 0 1 1 21.23v-.02a9.92 9.92 0 0 1-.36-3.02v.02h4.3v.36q0 1.11.64 1.43c.31.15.67.23 1.06.23h1.6a5.51 5.51 0 0 0 1.58-.12H9.8c.35-.12.63-.4.77-.74.06-.23.1-.48.1-.75v-.09q0-1.13-.83-1.37c-.83-.13-1.82-.23-2.83-.27h-.05q-2.06-.15-2.86-.28-2.1-.4-2.8-1.63a6.32 6.32 0 0 1-.65-3.18v.02A8.71 8.71 0 0 1 1 9.2l-.01.06c.19-.62.57-1.13 1.07-1.48a5.4 5.4 0 0 1 2.77-.91h.01q1.41-.13 3.13-.13h.6c1.15 0 2.27.11 3.35.33l-.1-.02q2.8.76 2.8 4.22c0 .2 0 .48-.04.86zm18.89 11.68V6.62h8.94c.84 0 1.65.1 2.43.3h-.07a4.2 4.2 0 0 1 2.84 2.69l.01.03a10.3 10.3 0 0 1 .38 3.27v-.02a12.02 12.02 0 0 1-.44 3.84l.02-.09a3.85 3.85 0 0 1-3.38 2.6q-.3.05-2.57.09h-3.52v4.43zm4.62-8.41h3.1c.52 0 1.03-.08 1.5-.22h-.03c.3-.2.5-.52.54-.89.06-.36.1-.76.1-1.18l-.01-.17a5.17 5.17 0 0 0-.18-1.65v.04c-.18-.5-.63-.86-1.18-.9H38.1zm19.76 5.44H51.7l-.82 2.97h-4.78L51.2 6.62h7l5.21 17.16h-4.68zm-.91-3.34l-2.16-7.43-2.1 7.43zM27.1 9.04c1.9 0 3.6.87 4.72 2.24l1-2.12a8.76 8.76 0 0 0-14.02 2.87l-.02.05h-1.93l-1.16 2.48h2.5v.69c0 .3.02.58.05.87v-.04h-1.28l-1.15 2.46h3.04a8.68 8.68 0 0 0 7.92 5.16h.08c1.8 0 3.47-.54 4.86-1.47l-.03.02v-3.01a6.06 6.06 0 0 1-9.65-.66l-.01-.03h6.36l1.15-2.46h-8.46a6.03 6.03 0 0 1-.03-1.56v.03h9.19l1.16-2.48h-9.55a6.1 6.1 0 0 1 5.26-3.05z"/></svg>
