<svg xmlns="http://www.w3.org/2000/svg" viewBox="0 0 425 272"><path d="M425 30c-.1-2.7-.2-5.3-.7-8s-1.3-5.2-2.5-7.6a25 25 0 0 0-11.2-11.2c-2.4-1.2-4.9-2-7.6-2.5-2.6-.5-5.3-.6-8-.7l-3.7-.1c-1.7.2-3.1.2-4.6.2H33.6l-3.7.1c-2.7.1-5.4.2-8 .7A25.9 25.9 0 0 0 .8 22.2c-.5 2.6-.6 5.3-.7 8L0 33.9v204.5l.1 3.7c.1 2.7.2 5.3.7 8s1.3 5.2 2.5 7.6a25 25 0 0 0 11.2 11.2c2.4 1.2 4.9 2 7.6 2.5a52.9 52.9 0 0 0 11.7.8h357.5l3.7-.1c2.7-.1 5.4-.2 8-.7a25 25 0 0 0 18.8-13.7c1.2-2.4 2-4.9 2.5-7.6.5-2.6.6-5.3.7-8l.1-3.7V33.7L425 30zm-9.2 208.2l-.1 3.5c-.1 2-.2 4.4-.6 6.6a17 17 0 0 1-14 14c-2.3.4-4.7.5-6.6.6H30.1c-1.9-.1-4.4-.2-6.6-.6a17 17 0 0 1-14-14c-.4-2.2-.5-4.6-.6-6.6l-.1-3.5V33.8l.1-3.5c.1-2 .2-4.4.6-6.6a17 17 0 0 1 14-14c2.2-.4 4.6-.5 6.6-.6l3.5-.1h353.1v.1h4.3l3.5.1c2 .1 4.4.2 6.6.6a17 17 0 0 1 14 14c.4 2.2.5 4.6.6 6.6l.1 3.5v204.3z"/><path d="M204.5 142.2V181h-12V85.4h32c7.7-.2 15.3 2.8 20.7 8.3a27.8 27.8 0 0 1 1.4 39l-1.4 1.4a29 29 0 0 1-20.7 8.2h-20zm0-45v33.3h20.3c4.5.2 9-1.7 12-5a17 17 0 0 0-.4-23.7c-3-3-7.2-4.7-11.6-4.7h-20.3zM281.8 113.4c9 0 16 2.4 21.2 7.2s7.7 11.5 7.7 20V181h-11.6v-9h-.5a23 23 0 0 1-20 11.1c-7 0-13-2-17.8-6.4a20 20 0 0 1-7-16c0-6.8 2.5-12 7.5-16.2s11.8-6 20.2-6c7.2 0 13.1 1.4 17.7 4v-2.8c0-4.2-1.8-8.2-5-10.9a17.5 17.5 0 0 0-11.7-4.5c-6.8 0-12 3-16 8.7l-10.7-6.8a29.7 29.7 0 0 1 26-12.7zM266.2 161c0 3.2 1.5 6.2 4 8 2.7 2.1 6 3.3 9.4 3.2 5.1 0 10-2 13.6-5.7 4-3.8 6-8.3 6-13.5-3.8-3-9-4.6-15.8-4.5-4.9 0-9 1.2-12.3 3.6s-4.9 5.3-4.9 9z"/><path class="st1" d="M377.2 115.6l-40.4 94.1h-12.5l15-32.9-26.5-61.2H326l19.2 47h.2l18.8-47h13.1z"/><g><path class="st1" d="M155.6 133.9c0-3.7-.3-7.5-1-11.1h-51v21H133a25.4 25.4 0 0 1-10.8 16.8v13.7h17.4a54 54 0 0 0 16-40.4z"/><path class="st1" d="M103.7 187.6c14.6 0 26.9-5 35.9-13.3L122 160.6a32.6 32.6 0 0 1-48.8-17.3h-18v14.2a54.2 54.2 0 0 0 48.4 30z"/><path class="st1" d="M73.3 143.2a32.8 32.8 0 0 1 0-21V108h-18a55.5 55.5 0 0 0 0 49.3l18-14.1z"/><path class="st1" d="M103.7 99.5c7.7-.2 15.2 2.8 20.7 8.2L139.9 92a51.5 51.5 0 0 0-36.2-14.2A54.1 54.1 0 0 0 55.3 108l18 14.2a32.4 32.4 0 0 1 30.4-22.7z"/></g></svg>
