<svg xmlns="http://www.w3.org/2000/svg" viewBox="0 0 64 32"><path d="M35.55 10.5a6.22 6.22 0 0 0-3.94-5.74l-.05-.02V16.3a6.23 6.23 0 0 0 3.99-5.8zm-8.43 5.8V4.7a6.21 6.21 0 0 0-.04 11.58l.04.01zm2.2 4.92h5.02c5.85 0 11.19-4.77 11.19-10.6 0-6.38-5.34-10.8-11.18-10.8H29.08a10.55 10.55 0 0 0-10.55 10.8 10.72 10.72 0 0 0 10.71 10.6h.08zm0-20.5h.03a9.8 9.8 0 1 1-9.8 9.8v-.01A9.8 9.8 0 0 1 29.34.7zM8.42 22.29H5.02v.3c.52 0 1.07-.05 1.07 1v5.63c-.03.79-.37.81-1.07.88v.3h3.24c4.11 0 4.79-2.9 4.79-4.04 0-2.06-1.64-4.07-4.65-4.07zm.02 7.74c-.57 0-1.2-.1-1.2-1v-6.32c.2 0 .42-.04.9-.04 2.24 0 3.64 1.57 3.64 3.74 0 1.73-.83 3.62-3.34 3.62zm6.73-.31v-4.48c0-.1 0-.17-.08-.17a14.03 14.03 0 0 1-1.45.47v.19c.42.23.6.3.6.81v3.15c0 .39-.24.39-.56.39h-.23v.3h2.5v-.3h-.2c-.32.02-.58.02-.58-.36zm-.44-6.42c.32 0 .57-.27.57-.58a.57.57 0 1 0-.57.58zm6.6 6.42v-2.99c0-.9-.34-1.62-1.33-1.62a3.4 3.4 0 0 0-2.01.87v-.77c0-.1-.03-.12-.07-.12-.4.18-.9.37-1.42.53l-.11.03v.22c.54.22.67.34.67.77v3.08c0 .38-.23.38-.56.38h-.2v.3h2.5v-.3h-.22c-.33 0-.58 0-.58-.38v-3.44c.38-.28.84-.48 1.33-.56h.02c.64 0 1.07.33 1.07.99v3.01c0 .38-.23.38-.56.38h-.2v.3h2.5v-.3h-.25c-.32 0-.57 0-.57-.38zm3.38.16c-.93 0-1.64-.9-1.7-2.01a2.7 2.7 0 0 1 0-.69v.02h3.26l.1-.07a1.18 1.18 0 0 0 0-.22 1.85 1.85 0 0 0-1.97-1.82c-.81 0-2.34.67-2.34 2.95 0 .74.37 2.56 2.22 2.56.9-.05 1.68-.55 2.13-1.27h.01l-.15-.23c-.39.45-.94.74-1.55.78zm-.37-4.43h.03a.99.99 0 0 1 .99 1.08c0 .13-.04.28-.33.28h-1.97c.12-.83.6-1.36 1.28-1.36zm5.6-.36c-.7 0-1.19.75-1.48 1.2v-1.05c0-.11-.03-.15-.1-.15s-.57.3-1.42.64v.17c.17.1.6.16.6.53v3.26c0 .39-.23.39-.56.39h-.33v.3h3.01v-.3h-.64c-.33 0-.56 0-.56-.39V27c0-.5.37-.9.84-.97.41 0 .41.28.78.28.3-.01.54-.26.54-.57v-.03a.64.64 0 0 0-.64-.6h-.03zm1.82 1.14a.81.81 0 0 1 .92-.78h.08c.65 0 1.17.51 1.2 1.16h.26l-.1-1.16a3 3 0 0 0-1.32-.33c-1.29 0-1.8.83-1.8 1.48 0 1.87 2.56 1.43 2.56 2.8v.02a.82.82 0 0 1-.95.8 1.53 1.53 0 0 1-1.46-1.4l-.21.05.13 1.34c.4.23.89.38 1.4.4h.01c1.39 0 2-.82 2-1.59-.02-1.85-2.72-1.43-2.72-2.78zm10.6 3.98c-1.79 0-3.47-1.69-3.47-4.04 0-2.79 1.92-3.68 3.28-3.68s2.27.54 2.49 1.92h.29l-.1-1.67a8.2 8.2 0 0 0-2.72-.64h-.03c-2.27 0-4.4 1.7-4.4 4.09 0 2.61 1.72 4.37 4.44 4.37a6.47 6.47 0 0 0 2.6-.66l-.04.02.27-1.7-.27-.07a2.37 2.37 0 0 1-2.34 2.06zm4.72-.5V21.7c0-.1 0-.17-.1-.17-.1.03-.18.08-.26.13a7 7 0 0 1-1.14.48l-.05.02v.18c.44.13.64.16.64.91v6.47c0 .39-.23.39-.56.39h-.22v.3h2.5v-.3h-.23c-.33 0-.58 0-.58-.38zm5.75.05v-4.3c0-.14 0-.22-.1-.22s-.76.1-1.8.16v.21c.4.12.97.25.97.48v3.12a2.6 2.6 0 0 1-1.39.73h-.01c-1.02 0-1.02-1-1.02-1.36v-2.97c0-.26 0-.34-.12-.34s-1.08.07-1.5.08v.22c.64.05.7.34.7.64v2.98l-.01.1c0 .7.57 1.28 1.28 1.28a3.13 3.13 0 0 0 2.06-.97v.94l.06.04c.46-.15 1.03-.27 1.6-.35l.07-.01v-.25h-.47c-.19.01-.32 0-.32-.2zm4.05-4.67c-.69.09-1.28.4-1.74.84V21.7c0-.1 0-.17-.08-.17a7.04 7.04 0 0 1-1.4.61l-.06.02v.18c.44.13.64.16.64.91v5c0 .73-.06 1.45-.17 2.15l.01-.08.24.13.35-.27c.47.25 1.02.4 1.61.4a2.94 2.94 0 0 0 2.79-2.93v-.12-.16c0-1.23-.98-2.23-2.2-2.26zm-.54 5.19a1.28 1.28 0 0 1-1.2-1.19v-2.82c.29-.3.67-.5 1.1-.55.92 0 1.87 1.04 1.87 2.3 0 1.03-.53 2.26-1.77 2.26z"/></svg>
