<svg xmlns="http://www.w3.org/2000/svg" viewBox="0 0 64 32"><path d="M16.73 13.7a5.13 5.13 0 0 0 3.17 4.62l.03.02a12.35 12.35 0 0 1-1.7 3.3l.03-.03c-.98 1.4-2 2.79-3.62 2.81s-2.1-.89-3.9-.89-2.38.88-3.85.94-2.74-1.52-3.73-2.9c-2.03-2.85-3.58-8.05-1.5-11.54 1-1.7 2.81-2.82 4.89-2.87 1.53 0 2.97 1 3.9 1s2.66-1.29 4.5-1.1c1.78.06 3.34.94 4.32 2.26l.01.02a5.18 5.18 0 0 0-2.56 4.35zm-2.98-8.52a4.92 4.92 0 0 0 1.23-3.67v.01c-1.4.13-2.61.78-3.48 1.74a4.69 4.69 0 0 0-1.29 3.56V6.8h.08c1.38 0 2.61-.62 3.42-1.6l.01-.02zM25.7 3.53q.92-.15 2.03-.28c.7-.07 1.5-.12 2.32-.12h.32c1.1 0 2.15.17 3.14.47l-.07-.02a5.9 5.9 0 0 1 2.26 1.29c.5.48.9 1.07 1.17 1.72l.01.04c.27.66.43 1.43.43 2.24v.25c0 .97-.21 1.89-.6 2.7l.02-.03a5.9 5.9 0 0 1-1.59 2.02c-.69.55-1.49.97-2.36 1.22h-.05c-.88.26-1.9.41-2.94.41h-.1a11.36 11.36 0 0 1-2.57-.23l.07.02v8.9H25.7zm1.5 10.4c.34.1.75.17 1.17.2h.03q.64.07 1.42.07a6.67 6.67 0 0 0 4.43-1.3l-.02.02A4.65 4.65 0 0 0 35.8 9.1V9c0-.72-.15-1.4-.42-2.02l.01.03a3.8 3.8 0 0 0-1.16-1.46 5.34 5.34 0 0 0-1.78-.88l-.03-.01a8.34 8.34 0 0 0-2.23-.3h-.21c-.57 0-1.13.03-1.68.08h.07q-.73.07-1.18.17zm21.95 6.66v1.8c.02.62.09 1.22.2 1.8v-.08h-1.37l-.23-2.1h-.06a5.76 5.76 0 0 1-1.72 1.65l-.03.02c-.38.23-.83.43-1.3.56h-.03c-.48.15-1.02.23-1.58.23h-.13c-.67 0-1.3-.13-1.87-.37l.03.02a3.79 3.79 0 0 1-2.18-2.22v-.03a4.51 4.51 0 0 1 1.97-5.52l.02-.01q2.26-1.42 6.82-1.36v-.42c0-.47-.04-.94-.12-1.4l.01.06a4.15 4.15 0 0 0-.5-1.46v.02a3.16 3.16 0 0 0-1.12-1.13h-.01a3.88 3.88 0 0 0-2.07-.47h.01a6.8 6.8 0 0 0-3.73 1.13l.03-.01-.47-1.1a7 7 0 0 1 2.04-.95l.05-.02a8.3 8.3 0 0 1 2.21-.3H44.26c.86 0 1.67.2 2.4.55l-.04-.02a4.3 4.3 0 0 1 1.56 1.35v.01c.37.54.64 1.16.78 1.84v.03c.13.62.2 1.33.2 2.06zm-1.49-4.42a20.05 20.05 0 0 0-2.6.1l.08-.01c-.89.08-1.7.27-2.48.56l.06-.02c-.72.27-1.34.68-1.83 1.22a3.04 3.04 0 0 0-.74 2.14v.23c0 .83.35 1.57.92 2.08.55.47 1.27.75 2.05.75h.07c.57 0 1.11-.1 1.62-.26h-.04a4.3 4.3 0 0 0 1.3-.64h-.02c.35-.26.65-.57.9-.92v-.02c.23-.3.42-.67.56-1.05v-.03c.09-.26.14-.57.16-.88v-.02zm4.4-6.9l3.85 9.65q.31.8.6 1.66t.5 1.56h.07l.5-1.53q.29-.85.65-1.75l3.6-9.6h1.6l-4.4 10.88q-.65 1.73-1.29 3.14t-1.18 2.56c-.41.78-.82 1.43-1.26 2.05l.04-.05c-.4.57-.86 1.06-1.37 1.5-.48.44-1.02.81-1.6 1.12l-.04.02q-.74.36-1 .44l-.5-1.2c.51-.22.93-.44 1.34-.67l-.06.03a6.9 6.9 0 0 0 1.38-1.06c.45-.45.87-.93 1.26-1.44l.02-.03c.47-.64.87-1.37 1.2-2.14l.02-.07c.08-.19.15-.4.19-.63v-.01c-.03-.24-.1-.46-.2-.65l-5.5-13.77z"/></svg>
