<svg xmlns="http://www.w3.org/2000/svg" viewBox="0 0 64 32"><path d="M22.72 15.8v.25l4.72-2.03a2.7 2.7 0 0 0-4.73 1.79zM32.03-.17A15.38 15.38 0 1 0 47.41 15.2c0-8.49-6.89-15.37-15.38-15.37zm6.65 11.15c2.23 0 4.1 1.53 4.61 3.6l.01.03-2.1.17a2.7 2.7 0 0 0-3.42-1.58h.02l-.9-1.84a4.67 4.67 0 0 1 1.78-.38zm-15.85 8.78l1.11-1.7a2.75 2.75 0 0 0 3.38-.3l1.41 1.45a4.67 4.67 0 0 1-5.91.54h.01zm5.29-4.23l-1.93.86-4.7 2.01a4.73 4.73 0 1 1 8.52-3.76l.01.04zm5.12 4.74l-1.72-.73c-.64-.28-.89-.68-.89-1.52V9.08h1.7V17.79c0 .08.04.15.12.17l1.47.57zm2.73-.64a4.75 4.75 0 0 1-.25-7.62V12l1.1 1.78a2.69 2.69 0 0 0 .2 4.08zm2.69.83c-.53 0-1.04-.09-1.52-.25l.04.01.82-1.92a2.7 2.7 0 0 0 3.38-2.45l2.05.06a4.76 4.76 0 0 1-4.75 4.58z"/></svg>
