<svg xmlns="http://www.w3.org/2000/svg" viewBox="0 0 64 32"><path d="M11.53 19.82c.19-.27.37-.3.68-.13q1.58.91 3.2 1.67c2.28 1.07 4.95 2 7.72 2.63l.28.05c1.15.29 2.62.56 4.11.75l.2.02a38.7 38.7 0 0 0 5.75.26h-.05c1.63-.04 3.18-.18 4.7-.4l-.21.02a40.4 40.4 0 0 0 10.22-2.84l-.26.1a.87.87 0 0 1 .65-.06h-.01a.55.55 0 0 1 .26.9c-.07.08-.15.15-.23.2V23a23.96 23.96 0 0 1-5.92 3.11l-.16.06a29.47 29.47 0 0 1-5.2 1.4l-.2.02c-1.21.22-2.65.38-4.1.43H30.9c-.9-.07-1.82-.12-2.73-.21-1.73-.2-3.3-.53-4.8-.98l.2.05a29.8 29.8 0 0 1-11.72-6.43l.02.03-.33-.45V20zm32.2-8.3l.77-2.2 2.09-5.99.12-.3a.48.48 0 0 1 .48-.3H48.58a.23.23 0 0 1 .22.3l-.1.36v-.01L43.93 15.5c-.22.6-.52 1.11-.88 1.57-.45.57-1.13.95-1.9 1.01h-.01a4.6 4.6 0 0 1-1.6-.11h.03a.54.54 0 0 1-.5-.6v-.64c0-.2.12-.34.38-.32s.33.06.5.06a5.33 5.33 0 0 0 .93-.05h-.03c.51-.1.92-.44 1.11-.9.23-.48.4-.98.62-1.45a1.01 1.01 0 0 0 0-.91q-1.99-4.84-3.94-9.7c-.05-.1-.09-.22-.12-.34V3.1c-.06-.23.03-.35.27-.35H40.18c.25 0 .45.16.52.38l.69 1.9 2.3 6.4zm4.71 8.86c-1.09.02-2.15.1-3.19.25l.14-.02a1.33 1.33 0 0 1-.3 0 .21.21 0 0 1-.18-.32.94.94 0 0 1 .27-.3 6.34 6.34 0 0 1 2.18-.93l.05-.01a9.2 9.2 0 0 1 4.08-.08l-.06-.01c.3.07.55.15.8.26l-.03-.01c.2.07.33.26.33.47v.3c0 2.1-.75 4.05-2.02 5.55l.02-.01c-.2.23-.41.44-.64.63-.1.08-.2.14-.33.17a.2.2 0 0 1-.26-.23 1 1 0 0 1 .07-.28c.3-.87.64-1.75.94-2.64.17-.5.28-1.08.3-1.68v-.22-.07a.64.64 0 0 0-.51-.63 7.9 7.9 0 0 0-1-.18h-.05a5 5 0 0 0-.62-.01h.01zM26.8 7.14c-.06-.89-.3-1.7-.65-2.44l.01.04a3.9 3.9 0 0 0-2.53-2.17h-.03a4.75 4.75 0 0 0-3.64.45l.02-.02c-.42.23-.8.52-1.22.78v-.11c-.03-.2-.05-.42-.1-.64a.39.39 0 0 0-.38-.33h-1.1a.33.33 0 0 0-.33.34V17.4c0 .3.12.43.43.43h1.23c.3 0 .42-.13.43-.43v-4.93l.09.06a4.71 4.71 0 0 0 3.33 1.18c1.13 0 2.16-.47 2.9-1.23a5.15 5.15 0 0 0 1.27-2.36l.01-.03a8.46 8.46 0 0 0 .26-2.99v.03zm-2.32 2.8c-.13.48-.35.89-.65 1.24-.42.47-1.02.78-1.7.82h-.31a4.47 4.47 0 0 1-2.8-.97h.01a.25.25 0 0 1-.07-.17V8v-2.8-.03c0-.08.05-.16.12-.2a4.7 4.7 0 0 1 2.87-.9h-.01.07c1.11 0 2.06.74 2.37 1.74v.02c.18.47.29 1.01.31 1.58v.01a7.3 7.3 0 0 1-.23 2.56l.02-.05zm12.6-4.1v-.01c0-.35-.04-.7-.1-1.03l.01.03a2.57 2.57 0 0 0-1.27-1.91l-.01-.01a4.25 4.25 0 0 0-1.82-.5h-.01a9.85 9.85 0 0 0-3.34.28l.07-.02c-.5.14-.9.27-1.3.43l.09-.03a.47.47 0 0 0-.33.47v.73c0 .24.15.4.44.3.82-.27 1.77-.46 2.76-.52h.03a5.27 5.27 0 0 1 1.58.1h-.04c.63.1 1.1.6 1.18 1.24a13.08 13.08 0 0 1 .07 2.16V7.5H35c-.6-.15-1.3-.26-2.03-.31h-.04a5.75 5.75 0 0 0-2.34.26l.05-.01c-.88.27-1.58.88-1.98 1.67v.02a3.4 3.4 0 0 0-.25 2.07v-.02c.11 1 .75 1.83 1.62 2.22h.02a3.92 3.92 0 0 0 2.38.26h-.03a5.58 5.58 0 0 0 2.7-1.24h-.01l.1-.07.13.74c.02.18.17.33.35.34h1.11c.17 0 .31-.15.31-.32v-.19l-.01-7.08zm-2.1 5.33c-.7.52-1.54.87-2.47.98h-.02a2.34 2.34 0 0 1-1.15-.12h.02c-.4-.15-.72-.49-.83-.9a2.14 2.14 0 0 1 0-1.3v.01c.16-.52.58-.91 1.1-1.04a3.79 3.79 0 0 1 1.55-.15h-.01c.6.05 1.2.15 1.8.24l.12.03v2.05c0 .08-.04.15-.1.19z"/></svg>
