<svg xmlns="http://www.w3.org/2000/svg" viewBox="0 0 64 32"><path d="M8.05-.17v30.75h47.97V-.17zm17.13 29.82H8.97V.76h46.12v17.62c-4.02 2.39-14.24 7.77-29.9 11.29zM11.94 9.19H9.9v7.2h2.28c.88 0 1.7-.31 2.34-.83a3.62 3.62 0 0 0 1.28-2.76c.02-2.12-1.55-3.61-3.85-3.61zm1.64 5.43a2.68 2.68 0 0 1-1.93.56h-.36v-4.76h.37l.28-.01a2.35 2.35 0 0 1 2.42 2.35v.07c0 .7-.3 1.34-.77 1.78zm2.88-5.43h1.4v7.2h-1.4v-7.2zm4.84 2.77c-.85-.3-1.08-.52-1.08-.91s.43-.8 1.04-.8c.46 0 .88.23 1.14.58l.74-.95a3.1 3.1 0 0 0-2.09-.8h-.17a2.1 2.1 0 0 0-2.1 2.05c0 1 .45 1.51 1.77 1.99.37.1.7.25 1 .42l-.03-.01c.25.14.41.4.41.7v.03c0 .57-.46 1.03-1.02 1.03H20.8c-.65 0-1.22-.39-1.49-.94v-.01l-.9.87c.5.84 1.4 1.39 2.42 1.39h.23a2.32 2.32 0 0 0 2.32-2.32v-.06c0-1.16-.48-1.68-2.08-2.26zm2.53.84v.02a3.73 3.73 0 0 0 3.74 3.74h.1c.63 0 1.22-.16 1.74-.42h-.03v-1.66c-.4.48-1 .79-1.68.8h-.07a2.36 2.36 0 0 1-2.35-2.49v-.07a2.4 2.4 0 0 1 2.35-2.4c.7 0 1.33.31 1.75.8v.01-1.68a3.62 3.62 0 0 0-1.72-.43h-.05a3.78 3.78 0 0 0-3.78 3.78zm13.8.04a3.91 3.91 0 1 1-7.83 0 3.91 3.91 0 0 1 7.82 0zm2.9 1.2l-1.91-4.85h-1.54l3.07 7.4h.76l3.1-7.4H42.5l-1.95 4.84zm4.12 2.35h3.97v-1.22h-2.57v-1.94h2.49v-1.2h-2.49V10.4h2.57V9.18h-3.97v7.2zm7.88-3.03a1.92 1.92 0 0 0 1.64-2.04v.01c0-1.36-.93-2.14-2.56-2.14h-2.06v7.2h1.4V13.5h.2l1.92 2.88h1.73zm-1.19-.84h-.41v-2.18h.44c.88 0 1.36.36 1.36 1.05s-.45 1.13-1.36 1.13z"/></svg>
