<svg xmlns="http://www.w3.org/2000/svg" viewBox="0 0 64 32"><path d="M28.93 17.64v-1.28H23.9c-2.47 0-3.62.84-3.62 2.16 0 1.2 1.11 2.26 3.95 2.26 3.5-.03 4.7-.35 4.7-3.14zM18.17 8.87l-1.78 1.78A10.23 10.23 0 0 0 10.8 9c-2.69 0-3.6.92-3.6 2.16 0 .78.64 1.55 2.76 1.7l3.47.2c2.14.13 3.64.74 4.62 1.68a7.63 7.63 0 0 1 5.1-1.6h-.03 5.82v-1.82c0-1.7-1.28-2.3-4.3-2.3L24.29 9c-1.68 0-3.2.63-4.36 1.67h.01zm31.29 4.54h9.72c0-3.1-2.31-4.65-4.88-4.65s-4.84 1.52-4.84 4.65zM34.9 14.8c.04 2.93.08 3.4.85 4.21a5.02 5.02 0 0 0 3.63 1.4 4.45 4.45 0 0 0 3.39-1.4c.76-.82.85-1.32.85-4.21s-.06-3.43-.84-4.26a4.52 4.52 0 0 0-3.28-1.4h-.26c-1.36 0-2.58.54-3.49 1.4-.76.83-.89 1.3-.85 4.26zm-2.64-6.47l.44-.53a7.43 7.43 0 0 1 5.54-2.2h.11c2.05 0 3.91.81 5.29 2.13V5.78h4.2v1.97a8.66 8.66 0 0 1 6.02-2.17h-.02c4.6 0 8.56 3.15 8.59 8.45 0 .9-.1 2.53-.1 2.53H49.45c0 2.92 2 4.03 4.87 4.03a8.02 8.02 0 0 0 4.89-1.84l-.02.01 2.83 2.05a10.8 10.8 0 0 1-7.61 3.16c-2.3 0-4.78-.54-6.57-2.18v1.51c0 5.43-4.28 7.9-9.07 7.9a10.72 10.72 0 0 1-7.26-3l3.26-2.23a6.38 6.38 0 0 0 4.07 1.63c2.81 0 4.8-1.38 4.8-3.9v-1.83a7.93 7.93 0 0 1-5.39 2.09h-.22c-1.88 0-3.6-.67-4.94-1.79l.01.01v1.82h-4.17v-1.84h-.1c-.87 1.24-2.32 1.8-5.13 1.8-2.66 0-4.68-.77-5.94-2-1.57 1.28-4.06 1.99-6.93 1.99h-.15c-3.44 0-6.6-1.2-9.08-3.22l.03.02 2.93-2.48a9.5 9.5 0 0 0 6.61 2.3h-.01c2.4 0 4.12-.78 4.12-2.3 0-1.28-1.11-1.67-2.56-1.77L9 16.23c-3.47-.25-6.02-2.02-6.02-5.13 0-3.63 3.37-5.5 7.79-5.5l.47-.01c2.55 0 4.93.7 6.96 1.92l-.07-.03c1.55-1.38 3.57-1.89 6.29-1.89 3.63 0 6.46.74 7.82 2.71z"/></svg>
