<svg xmlns="http://www.w3.org/2000/svg" viewBox="0 0 64 32"><path d="M25.913 5.76h5.08l-3.178 18.649h-5.087L25.912 5.76zm20.359.602a12.887 12.887 0 0 0-4.428-.769l-.134.001h.007c-5.023 0-8.559 2.53-8.591 6.156 0 2.678 2.524 4.177 4.484 5.067s2.646 1.499 2.633 2.313c0 1.281-1.582 1.819-3.043 1.819a10.612 10.612 0 0 1-4.85-1.007l.065.028-.641-.295-.711 4.177c1.63.609 3.513.962 5.479.962l.146-.001h-.007c5.343 0 8.809-2.498 8.853-6.374 0-2.12-1.333-3.735-4.267-5.067-1.775-.865-2.864-1.441-2.851-2.313 0-.775.922-1.602 2.908-1.602l.202-.002c1.3 0 2.539.265 3.664.743l-.061-.023.455.218.692-4.042zm13.037-.442h-3.927c-1.217 0-2.127.333-2.659 1.544L45.17 24.556h5.336s.871-2.306 1.07-2.8h6.509c.154.641.641 2.793.641 2.793h4.696L59.309 5.92zm-6.272 12.018l2.056-5.208s.416-1.083.673-1.781l.346 1.608 1.179 5.388h-4.254zM18.495 5.913l-4.978 12.716-.532-2.563c-.929-2.979-3.844-6.208-7.047-7.822l4.548 16.31h5.375l8.014-18.642h-5.381zm-9.59-.006h-8.2l-.064.391c6.406 1.544 10.596 5.272 12.345 9.757l-1.781-8.578c-.307-1.179-1.198-1.531-2.306-1.576zM6.15 8.931a1.13 1.13 0 0 0-.634-.843l-.007-.003 1.537.711z"/></svg>
