<svg xmlns="http://www.w3.org/2000/svg" viewBox="0 0 64 32"><path d="M35.3 11.28h-2.41a.69.69 0 0 0-.57.3L29 16.48l-1.4-4.71a.7.7 0 0 0-.64-.5h-2.38a.42.42 0 0 0-.4.56l2.64 7.75-2.49 3.5a.42.42 0 0 0 .34.64h2.4a.7.7 0 0 0 .57-.3l7.97-11.52a.42.42 0 0 0-.34-.64zM19.26 15.9a2.66 2.66 0 0 1-2.63 2.28h-.06l-.19.01a1.85 1.85 0 0 1-1.78-2.34v.01c.19-1.3 1.3-2.3 2.64-2.3h.03a2 2 0 0 1 1.59.65 2.04 2.04 0 0 1 .4 1.7v-.02zm3.32-4.65h-2.4c-.2 0-.38.15-.4.35l-.1.64-.18-.24c-.52-.75-1.67-1-2.82-1-2.75.06-5 2.14-5.32 4.82v.02a4.47 4.47 0 0 0 .9 3.67 3.73 3.73 0 0 0 3 1.2h.06c1.27 0 2.42-.5 3.25-1.34l-.11.64a.42.42 0 0 0 .41.48h2.15a.7.7 0 0 0 .68-.58L23 11.74a.42.42 0 0 0-.4-.48zm-14.33.1c-.27 1.8-1.64 1.8-2.96 1.8h-.75l.52-3.34c.03-.21.2-.37.42-.37h.35c.9 0 1.74 0 2.18.5a1.65 1.65 0 0 1 .24 1.43v-.01zM7.7 6.68H2.7a.7.7 0 0 0-.68.58L0 20.03a.42.42 0 0 0 .41.48h2.38a.7.7 0 0 0 .69-.58l.54-3.45a.7.7 0 0 1 .69-.58h1.58c3.27 0 5.17-1.59 5.67-4.73a3.83 3.83 0 0 0-.65-3.21c-.7-.83-1.96-1.28-3.63-1.28zM60.94 7l-2.05 13.02a.42.42 0 0 0 .41.48h2.06a.7.7 0 0 0 .68-.58l2.02-12.78a.42.42 0 0 0-.4-.48h-2.31c-.21 0-.38.15-.41.35zm-6.14 8.92a2.66 2.66 0 0 1-2.63 2.28h-.25a1.85 1.85 0 0 1-1.78-2.34v.02c.19-1.3 1.3-2.3 2.64-2.3h.03a2 2 0 0 1 1.59.64 2.04 2.04 0 0 1 .4 1.7v-.01zm3.32-4.65h-2.39c-.2 0-.37.15-.4.35l-.1.64-.17-.24c-.52-.75-1.67-1-2.82-1-2.75.06-5 2.12-5.33 4.79v.02a4.47 4.47 0 0 0 .9 3.67h-.01a3.73 3.73 0 0 0 3.01 1.2h.04c1.27 0 2.43-.51 3.26-1.35l-.11.63a.42.42 0 0 0 .4.48h2.15a.7.7 0 0 0 .69-.57l1.28-8.18a.42.42 0 0 0-.4-.48zm-14.31.08c-.28 1.79-1.64 1.79-2.96 1.79h-.76l.52-3.34c.03-.2.19-.36.39-.37h.34c.9 0 1.75 0 2.19.5a1.65 1.65 0 0 1 .27 1.43v-.01zm-.58-4.66h-4.98a.7.7 0 0 0-.69.57l-2.01 12.76a.42.42 0 0 0 .4.48h2.57c.24 0 .44-.18.48-.41l.56-3.62a.7.7 0 0 1 .69-.58h1.57c3.28 0 5.18-1.59 5.67-4.73a3.83 3.83 0 0 0-.65-3.21h.01c-.7-.83-1.96-1.28-3.63-1.28z"/></svg>
