<svg xmlns="http://www.w3.org/2000/svg" viewBox="0 0 64 32"><path d="M7.63 13.88c-1.34-.49-2.08-.89-2.08-1.5s.43-.79 1.16-.79c1.4.05 2.7.42 3.85 1.04l-.05-.03.55-3.43a10.46 10.46 0 0 0-4.52-1.01h-.05l-.28-.01c-1.32 0-2.53.44-3.5 1.18h.01a4.13 4.13 0 0 0-1.44 3.37c0 2.5 1.53 3.61 4.05 4.48 1.6.58 2.15.98 2.15 1.62s-.52.95-1.48.95c-1.61-.12-3.1-.6-4.4-1.35l.05.03-.55 3.47c1.49.8 3.25 1.26 5.13 1.28h.3c1.37 0 2.63-.42 3.67-1.15l-.02.01a4.3 4.3 0 0 0 1.56-3.6v.02c0-2.59-1.57-3.66-4.1-4.58zm13.73-5.42h-2.94V4.3l-3.96.64-.55 3.5-1.4.24-.52 3.16h1.92v6.72c0 1.75.46 2.94 1.35 3.68a5.26 5.26 0 0 0 3.42.92h-.02c.86 0 1.7-.12 2.49-.35l-.07.01v-3.61c-.4.1-.85.18-1.33.22h-.02c-.89 0-1.28-.5-1.28-1.53v-6.05h2.36zm9.1-.1a4.24 4.24 0 0 0-.85-.08h-.13c-1.22 0-2.25.8-2.6 1.9v.02l-.3-1.72h-4.02V22.9h4.6v-9.37a2.99 2.99 0 0 1 2.52-.95h-.01.1c.24 0 .48.02.72.07h-.03zm3.44-6.19h-.01a2.4 2.4 0 0 0-2.41 2.41v.02a2.42 2.42 0 0 0 4.84 0v-.02a2.4 2.4 0 0 0-2.4-2.4h-.02zm2.3 20.72V8.46h-4.6v14.43zM49.28 9.78a4.05 4.05 0 0 0-3.4-1.63 4.8 4.8 0 0 0-3.6 1.74l-.25-1.43h-4.03v19.77l4.6-.77v-4.62c.62.2 1.33.32 2.08.34h.12c1.57 0 2.98-.66 3.99-1.72 1.28-1.35 1.87-3.43 1.87-6.2 0-2.45-.46-4.32-1.38-5.49zm-3.8 8.89a1.86 1.86 0 0 1-1.6 1.07h-.07c-.44 0-.86-.1-1.23-.28h.02V12.6a2.56 2.56 0 0 1 1.74-.92c1.17 0 1.76 1.28 1.76 3.74v.41c0 1.03-.22 2.01-.64 2.89l.01-.04zm16.89-8.53a5.34 5.34 0 0 0-4.43-1.98h.01c-3.92 0-6.34 2.88-6.34 7.54 0 2.56.64 4.53 1.92 5.76 1.14 1.13 2.8 1.69 4.94 1.69h.33a9.1 9.1 0 0 0 4.62-1.25l-.05.02-.49-3.16c-1.1.6-2.42.95-3.82.95h-.1l-.23.01c-.65 0-1.23-.22-1.7-.6a2.83 2.83 0 0 1-.86-2h7.6c0-.2.07-1.28.07-1.6 0-2.28-.5-4.1-1.47-5.38zm-6.22 4.17c.12-2.05.67-3 1.71-3s1.6.98 1.66 3z"/></svg>
