<svg xmlns="http://www.w3.org/2000/svg" viewBox="0 0 64 32"><path d="M5.951 12.896a1.094 1.094 0 0 0-.819-.844l-.007-.001A2.094 2.094 0 0 0 4.656 12h-.032.002-3.285c-.347 0-.667.118-.921.316l.003-.002a.637.637 0 0 0-.127.127l-.001.002a1.35 1.35 0 0 0-.236.549L.058 13a2.77 2.77 0 0 0-.058.572v.031-.002 2.761c.008.2.047.388.113.563l-.004-.012a.93.93 0 0 0 .249.41c.244.215.567.346.92.346H4.663a2.09 2.09 0 0 0 .43-.047l-.014.003c.394-.071.709-.35.831-.716l.002-.008c.069-.2.11-.431.11-.672l-.001-.055V13.486v-.025c0-.201-.026-.395-.074-.581l.004.016zm18.393-.794l.002-.051-.002-.054v.002h-1.365v3.78a.353.353 0 0 1 0 .098v-.002a.392.392 0 0 1-.059.142l.001-.001a.488.488 0 0 1-.388.192h-.017.001-.981a.345.345 0 0 1-.344-.313v-.001c-.002-.027-.002-.058-.002-.09s.001-.063.003-.094v-3.59-.128a12.15 12.15 0 0 0-1.411.002l.033-.002V16.214a1.53 1.53 0 0 0 .001.288v-.006c.058.345.24.64.497.843l.003.002c.188.157.432.253.698.256h1.923v.423a.134.134 0 0 1 0 .071v-.001a.443.443 0 0 1-.279.204l-.003.001a1.246 1.246 0 0 1-.223-.001h.005-2.633v1.397h3.203a1.753 1.753 0 0 0 .268-.001h-.006a1.13 1.13 0 0 0 .823-.564l.003-.006a1.81 1.81 0 0 0 .25-.882v-.002-5.727-.41zm-11.531.647a1.077 1.077 0 0 0-.269-.423 1.196 1.196 0 0 0-.822-.327H9.668h-.002a1.44 1.44 0 0 0-.717.19l.007-.004a.93.93 0 0 0-.433.462l-.002.006a1.96 1.96 0 0 0-.154.755V19.752h1.377v-2.095h1.922a1.14 1.14 0 0 0 .644-.207l-.004.002c.133-.091.247-.197.344-.317l.002-.003a1.11 1.11 0 0 0 .263-.69v-.001-3.113-.01c0-.203-.038-.398-.106-.577l.004.011zm-1.282 3.03v.128a.412.412 0 0 1-.404.34h-.916a.763.763 0 0 1-.202-.001h.004a.354.354 0 0 1-.263-.341v-.012-.569-.461-.98a.492.492 0 0 1 0-.131v.003a.366.366 0 0 1 .36-.303l.039.002h-.002 1.063l.026-.001c.164 0 .298.132.301.296v.237q.026.884-.006 1.794zm23.498 1.345c.153-.224.244-.501.244-.799l-.001-.049V13.799v-.641a1.264 1.264 0 0 0-.093-.438l.003.009a1.014 1.014 0 0 0-.507-.568l-.006-.003a1.473 1.473 0 0 0-.64-.154h-3.281v1.397h2.748a1.072 1.072 0 0 1 .209.001h-.004c.104.017.185.1.198.204v.001a2.112 2.112 0 0 1 0 .243v-.006H32.079a2.13 2.13 0 0 0-.585.081l.015-.004a1.018 1.018 0 0 0-.722.672l-.002.007c-.057.161-.09.347-.09.54V16.302c0 .149.016.294.047.433l-.002-.013c.059.269.216.493.432.638l.004.002c.206.137.46.218.732.218h.012-.001 2.211c.367 0 .692-.178.893-.452l.002-.003zm-1.134-1.153v.005c0 .12-.084.22-.197.244h-.002a.77.77 0 0 1-.177 0h.004H32.465a.448.448 0 0 1-.301-.116.23.23 0 0 1-.083-.178v-.009-.429a.61.61 0 0 1 .001-.157v.003a.188.188 0 0 1 .14-.128h.001a1.008 1.008 0 0 1 .203 0h-.004 1.063c.077.004.149.02.216.046l-.005-.002a.25.25 0 0 1 .173.238v.013-.001c.026.16.032.34.026.468zm-15.317-3.017a1.065 1.065 0 0 0-.464-.715l-.004-.002a1.338 1.338 0 0 0-.715-.237h-3.302v1.397h2.774a.671.671 0 0 1 .19 0h-.004a.243.243 0 0 1 .172.127l.001.001a.46.46 0 0 1-.001.323l.001-.003h-2.057a1.272 1.272 0 0 0-.538.157l.007-.003a1.04 1.04 0 0 0-.504.633l-.002.007a1.89 1.89 0 0 0-.037.57v-.007 1.122c0 .171.023.336.067.493l-.003-.013a.988.988 0 0 0 .482.638l.005.003c.185.105.404.17.638.179h2.335c.34-.045.629-.231.811-.496l.003-.004c.133-.208.212-.462.212-.734v-.024-2.939a2.288 2.288 0 0 0-.067-.489l.003.015zm-1.281 2.991v.007a.276.276 0 0 1-.255.275H15.849a.462.462 0 0 1-.301-.11l.001.001a.254.254 0 0 1-.102-.198v-.423a.61.61 0 0 1 0-.157v.003a.186.186 0 0 1 .18-.141h.006a1.087 1.087 0 0 1 .209.001h-.005 1.179a.301.301 0 0 1 .269.299v.008a3.447 3.447 0 0 1 .013.441v-.006zM41.48 17.65h2.665v-1.403h-2.796a.262.262 0 0 1-.221-.121l-.001-.001a.537.537 0 0 1-.128-.279v-.003c0-.115 0-.122.083-.147l1.384-.493 1.095-.468.589-.237v-.115-1.006-.026c0-.175-.023-.345-.067-.506l.003.013a1.064 1.064 0 0 0-.363-.581l-.002-.002a1.217 1.217 0 0 0-.742-.275h-2.09c-.203 0-.397.04-.574.113l.01-.004a1.011 1.011 0 0 0-.574.557l-.002.007a1.562 1.562 0 0 0-.115.643v-.002 2.87c.004.162.018.317.041.469l-.003-.02c.049.339.242.625.514.798l.005.003a1.2 1.2 0 0 0 .673.205zM41 14.267v-.397-.016c0-.198.139-.364.324-.406l.003-.001a.54.54 0 0 1 .169 0h-.003.903l.031-.001c.088 0 .17.024.24.066l-.002-.001a.252.252 0 0 1 .096.12l.001.002c0 .077 0 .109-.058.135l-.884.333-.685.256-.122.038C41 14.331 41 14.299 41 14.267zM28.335 17.65h.243a.922.922 0 0 0 .565-.219l-.001.001c.121-.108.227-.23.316-.365l.004-.007a1.19 1.19 0 0 0 .224-.698v-.02-.954-.007c0-.163-.031-.32-.086-.463l.003.009a1.232 1.232 0 0 0-1.133-.801h-1.212a.983.983 0 0 1-.263-.04l.007.002a.237.237 0 0 1-.18-.23l.001-.021V13.736a.237.237 0 0 1 .191-.263h.001c.08-.023.173-.037.268-.038h2.397V12h-2.946c-.203 0-.397.038-.576.106l.011-.004a1 1 0 0 0-.523.425l-.003.004a1.384 1.384 0 0 0-.173.675v.018-.001 1.095c.003.159.04.308.105.442l-.003-.006c.112.217.273.394.469.522l.005.003c.221.153.494.244.788.244h.027-.001 1.172c.083 0 .157.043.199.108l.001.001c.041.073.065.16.065.252l-.001.038v-.002.008a.277.277 0 0 1-.21.268h-.002a1.072 1.072 0 0 1-.209-.001h.004-2.428v1.397h2.883zm10.448-5.651h-.641a1.846 1.846 0 0 1-.354-.001l.008.001v-.378a.411.411 0 0 1 .059-.168l-.001.002a.39.39 0 0 1 .353-.185h-.001.564V9.905h-.98a1.513 1.513 0 0 0-.951.348l.002-.002a1.127 1.127 0 0 0-.429.885v.012-.001V17.643a13.189 13.189 0 0 0 1.404-.002l-.033.001v-3.293-.807-.122H38.744zm-38.508 0c.162-.124.352-.221.558-.279l.012-.003a.148.148 0 0 0 .122-.121v-.001a2.112 2.112 0 0 1 2.808-1.449l-.014-.005a2.083 2.083 0 0 1 1.278 1.44l.003.014c.008.06.055.107.115.115h.001c.124.029.233.069.336.119l-.009-.004c.122.064.237.141.365.218a2.888 2.888 0 0 0-1.516-2.779l-.015-.008a2.846 2.846 0 0 0-4.09 1.903l-.004.019a3.05 3.05 0 0 0-.064.933L.16 12.1zM63.87 16.9c.109-.234.173-.508.173-.797v-.031-5.841-.09a.753.753 0 0 0-.331.001l.005-.001v1.858h-2.614l-.059-.001c-.266 0-.521.047-.757.134l.015-.005a1.21 1.21 0 0 0-.638.507l-.003.005a1.703 1.703 0 0 0-.231.861v.024-.001 2.562a3.768 3.768 0 0 0 0 .394v-.009c.027.359.195.675.447.896l.002.001c.151.138.34.238.55.281l.008.001c.201.037.432.058.668.058h.032-.002 1.416c.209-.01.406-.049.591-.113l-.015.004c.341-.113.609-.367.74-.69l.003-.008zm-.73.224c-.172.096-.375.16-.59.179H60.968l-.054.001c-.251 0-.49-.052-.706-.146l.011.004a.784.784 0 0 1-.441-.572l-.001-.005a2.123 2.123 0 0 1-.045-.429v-.001-2.627l-.001-.044c0-.24.069-.464.19-.653l-.003.005c.097-.145.216-.266.354-.362l.004-.003a1.04 1.04 0 0 1 .51-.16H63.69v3.781c0 .173-.028.34-.08.496l.003-.011a1.007 1.007 0 0 1-.469.542l-.005.003zm-8.258-.442c.033-.164.051-.353.051-.546v-.025-2.523a2.73 2.73 0 0 0-.001-.334v.008a1.763 1.763 0 0 0-.311-.787l.004.005a.98.98 0 0 0-.634-.447l-.006-.001a2.635 2.635 0 0 0-.464-.051H50.411a1.743 1.743 0 0 0 0 .308l-.001-.007h3.255a.87.87 0 0 1 .64.281l.001.001c.107.119.194.26.253.414l.003.009a1.958 1.958 0 0 1 .076.849l.001-.01h-3.017c-.171.011-.33.05-.477.113l.01-.004c-.173.066-.32.169-.435.3l-.001.001a1.424 1.424 0 0 0-.314.896V16.276c0 .374.16.71.416.945l.001.001c.23.221.54.358.883.365H53.647c.291 0 .56-.094.779-.253l-.004.003c.223-.155.386-.381.459-.645l.002-.008zm-1.069.634a3.203 3.203 0 0 1-.42-.001l.01.001h-1.55a1.278 1.278 0 0 1-.866-.347l.001.001a.758.758 0 0 1-.25-.523v-.002-.442-.737-.004c0-.249.077-.481.208-.672l-.003.004a.954.954 0 0 1 .59-.396l.006-.001c.125-.027.268-.044.416-.045h2.672v2.121a1.286 1.286 0 0 1-.099.489l.003-.008a.86.86 0 0 1-.714.563h-.004zm-.398 4.466h-.641v1.723a.198.198 0 0 1-.192.198h-.5a.16.16 0 0 1-.16-.16l-.001-.051.002-.054v-1.657h-.641v1.903a.74.74 0 0 0 .001.222l-.001-.004a.572.572 0 0 0 .419.428l.004.001a1.03 1.03 0 0 0 .235 0h-.005.82v.157a.153.153 0 0 1-.121.15H51.3v.275a2.057 2.057 0 0 0 .001.374l-.001-.008h1.514a.551.551 0 0 0 .496-.311l.001-.003a.76.76 0 0 0 .083-.35v-.003-2.787a.559.559 0 0 0 .018-.04l.002-.005zm-20.564.006a2.878 2.878 0 0 0-.654.001l.014-.001v1.666a.224.224 0 0 1-.222.251l-.022-.001h.001-.429a.173.173 0 0 1-.147-.171v-.002a.683.683 0 0 1 0-.098v-1.651a3.155 3.155 0 0 0-.654.002l.014-.001v1.922c0 .225.117.423.292.537l.003.002a.581.581 0 0 0 .303.084l.031-.001h-.001.884a.866.866 0 0 1-.001.151v-.003a.193.193 0 0 1-.192.18H30.751v.621h1.556a.545.545 0 0 0 .461-.254l.001-.002a.706.706 0 0 0 .109-.378v-.013-2.818a.25.25 0 0 0-.024-.018l-.002-.001zm15.356.596a.907.907 0 0 0-.047-.263l.002.006a.436.436 0 0 0-.222-.262l-.003-.001a.823.823 0 0 0-.371-.09h-.851a.915.915 0 0 0-.34.066l.006-.002a.4.4 0 0 0-.198.159l-.001.002a.843.843 0 0 0-.109.456v-.002 2.864h.641v-.961h.846a.763.763 0 0 0 .202 0h-.004a.643.643 0 0 0 .455-.581v-.001c-.013-.48 0-.935-.006-1.39zm-.641 1.108c0 .147-.077.211-.224.211h-.474a.173.173 0 0 1-.168-.173l.001-.02v-.447-.416l-.001-.021a.205.205 0 0 1 .233-.203h-.001.423c.154 0 .218.058.218.218q.013.429.006.858zm-19.917-.942a2.282 2.282 0 0 0-.001-.25v.006a.508.508 0 0 0-.298-.454l-.003-.001a.85.85 0 0 0-.333-.07h-.859a1.066 1.066 0 0 0-.296.047l.008-.002a.444.444 0 0 0-.3.292l-.001.003a1.075 1.075 0 0 0-.058.353V25.312h.641v-.955h1.019a.64.64 0 0 0 .48-.575v-.002c-.013-.423 0-.826 0-1.23zm-.64.948l.001.02a.2.2 0 0 1-.065.147.232.232 0 0 1-.121.045h-.462l-.02.001a.199.199 0 0 1-.199-.199l.001-.021v-.838c0-.16.077-.231.243-.237h.423c.147 0 .205.058.205.205v.442c0 .147 0 .288.006.436zm11.185-1.345a.432.432 0 0 0-.317-.32l-.003-.001a1.26 1.26 0 0 0-.318-.051h-1.443v.596h1.281a.77.77 0 0 1 .177.001h-.004a.084.084 0 0 1 .065.081v.15h-.852a1.204 1.204 0 0 0-.255.001h.005a.515.515 0 0 0-.377.285l-.001.003a.85.85 0 0 0-.064.367v-.002.557a.47.47 0 0 0 .128.295.638.638 0 0 0 .451.186h.011-.001.983a.537.537 0 0 0 .501-.343l.001-.004a.803.803 0 0 0 .058-.288v-.001-1.281a1.157 1.157 0 0 0-.027-.238l.001.007zm-.602 1.422a.154.154 0 0 1-.154.154H36.9a.174.174 0 0 1-.173-.166.898.898 0 0 1 0-.19v-.003a.128.128 0 0 1 .142-.127h-.001.647a.109.109 0 0 1 .077.104l-.001.012c.006.083.006.173.006.211zm21.448-1.198a.763.763 0 0 0-.001-.202v.004a.45.45 0 0 0-.324-.345l-.003-.001a1.298 1.298 0 0 0-.318-.051H56.905v.596h1.243a1.05 1.05 0 0 1 .17 0h-.004c.04.006.071.037.077.076v.154h-.839a1.19 1.19 0 0 0-.255 0h.005a.501.501 0 0 0-.404.487 6.142 6.142 0 0 0 .001.709l-.001-.017a.479.479 0 0 0 .298.434l.003.001a.78.78 0 0 0 .314.064H58.455a.577.577 0 0 0 .577-.577v-.014.001c.006-.397.006-.858.006-1.32zm-.641 1.179c0 .128-.051.173-.179.173h-.48l-.02.001a.172.172 0 0 1-.173-.173l.001-.021v-.166c0-.058.038-.128.122-.128h.589c.096 0 .141.058.141.154s-.006.135-.006.135zm-15.548-1.704a.736.736 0 0 0-.319-.071h-.892v-.955a3.17 3.17 0 0 0-.654.001l.014-.001v3.523h.641v-.115-1.608c0-.147.058-.199.205-.205h.436c.218 0 .237 0 .237.243v1.679a2.878 2.878 0 0 0 .654-.001l-.014.001v-.051-1.954-.013a.52.52 0 0 0-.304-.473l-.003-.001zm7.963.474a.48.48 0 0 0-.4-.512h-.003a1.742 1.742 0 0 0-.297-.038h-1.426v.602h1.224a.721.721 0 0 1 .17.001h-.004a.115.115 0 0 1 .096.109v.122h-.814a1.246 1.246 0 0 0-.223.001h.005a.506.506 0 0 0-.461.504v.016-.001a3.258 3.258 0 0 0 .001.727l-.001-.015a.477.477 0 0 0 .317.403l.003.001a.9.9 0 0 0 .322.058h1.023a.558.558 0 0 0 .455-.544v-.333c.013-.346.019-.718.013-1.095zm-.64 1.217v.007c0 .099-.08.179-.179.179l-.02-.001h.001-.48a.173.173 0 0 1-.168-.173l.002-.027v-.166c0-.058.038-.122.122-.128h.591c.085 0 .154.069.154.154l-.001.02v-.001c0 .051 0 .122-.006.122zM30.25 22.307v-.014a.481.481 0 0 0-.394-.473h-.003a1.28 1.28 0 0 0-.253-.038H28.143a2.286 2.286 0 0 0 .001.608l-.001-.012h1.281c.147 0 .192.058.179.205l.001.026-.001.027v-.001h-.881a.692.692 0 0 0-.333.085l.004-.002a.538.538 0 0 0-.27.467l.001.035v-.002.641a.449.449 0 0 0 .235.37l.002.001c.103.06.227.096.359.096h.955c.308 0 .557-.25.557-.557v-.02-1.127a.811.811 0 0 0 .019-.314zm-.64 1.121v.115l.001.02a.172.172 0 0 1-.173.173l-.015-.001h.001-.455c-.173 0-.231-.058-.231-.237v-.115c0-.038.051-.141.147-.141h.583c.083 0 .173.058.16.186zm31.935.006l1.377-.519v-.641a.48.48 0 0 0-.292-.428l-.003-.001a.843.843 0 0 0-.342-.07H61.5a1.204 1.204 0 0 0-.255.001h.005a.494.494 0 0 0-.383.317l-.001.003a.922.922 0 0 0-.058.322V23.589a1.644 1.644 0 0 0 .001.276v-.006a.535.535 0 0 0 .222.351l.002.001c.1.069.224.109.358.109l.028-.001h-.001 1.486a2.878 2.878 0 0 0-.002-.654l.001.013H61.57a.142.142 0 0 1-.116-.139v-.009c-.006-.051.006-.064.09-.096zm-.109-.544v-.275a.18.18 0 0 1 .178-.154h.527a.154.154 0 0 1 .085 0h-.001c.024.019.04.046.045.076v.001s-.032.038-.058.051l-.711.301zm-21.429-.147h-.596a.161.161 0 0 1-.135-.154.166.166 0 0 1 .14-.16h1.18v-.641h-1.281a1.23 1.23 0 0 0-.223 0h.005a.52.52 0 0 0-.455.515v.018-.001.539c0 .133.059.252.153.332h.001c.128.119.3.192.489.192h.018-.001.484c.056 0 .104.034.124.083v.001a.16.16 0 0 1-.136.244l-.018-.001h.001-1.115v.224a2.231 2.231 0 0 0 .001.425l-.001-.009h1.384a.48.48 0 0 0 .214-.053l-.003.001a.57.57 0 0 0 .333-.505v-.001-.301a.754.754 0 0 0-.085-.453l.002.004a.539.539 0 0 0-.48-.301zm15.279-.321h1.179v-.199-.359l.001-.042-.001-.044v.002h-1.281a1.38 1.38 0 0 0-.291.04l.009-.002a.494.494 0 0 0-.378.474v.641c0 .097.039.186.103.25.13.149.32.243.533.243h.499l.013-.001c.072 0 .131.057.134.128a.154.154 0 0 1-.149.193l-.019-.001h.001-1.127v.641h1.383a.577.577 0 0 0 .557-.576v-.014-.441a.59.59 0 0 0-.576-.577h-.59-.001a.14.14 0 0 1-.14-.128v-.001a.167.167 0 0 1 .14-.231h.001zM46.9 17.643h2.229a1.168 1.168 0 0 0-.001-.308l.001.006h-1.967a2.48 2.48 0 0 1-.483-.047l.016.003a.986.986 0 0 1-.683-.457l-.002-.004a1.392 1.392 0 0 1-.199-.722v-.029-2.741c.002-.126.018-.247.047-.363l-.002.011a.803.803 0 0 1 .552-.601l.006-.001a1.82 1.82 0 0 1 .59-.096h2.081v-.295H46.793c-.161 0-.316.028-.46.08l.009-.003a1.284 1.284 0 0 0-.858 1.144v2.927c0 .229.04.448.113.651l-.004-.013c.09.265.255.484.47.638l.004.003a1.366 1.366 0 0 0 .836.217h-.004zM35.568 23.71h-.75a.172.172 0 0 1-.225-.165l.001-.015v-.492-.455c0-.154.045-.141.147-.147h.922v-.641h-1.178a.512.512 0 0 0-.347.135.538.538 0 0 0-.16.412v-.001 1.441a.723.723 0 0 0 .072.299l-.002-.004c.05.119.15.208.273.243l.003.001c.087.028.188.046.292.051H35.682a2.878 2.878 0 0 0-.002-.654l.001.013zm24.542-2.883a.64.64 0 0 0-.292.079l.003-.002a.545.545 0 0 0-.308.49v.023-.001 2.928a2.866 2.866 0 0 0 .654-.001l-.013.001v-.641-.641-.641h.448v-.641h-.224a.6.6 0 0 1-.234-.001l.004.001v-.141-.006c0-.076.051-.14.121-.16h.001a.468.468 0 0 1 .137 0h-.003.205v-.596h-.5zm-3.197-3.325v-3.933-.016c0-.153.016-.302.047-.446l-.002.014a.97.97 0 0 1 .914-.814h.617V12h-.444c-.175 0-.344.023-.506.067l.013-.003a1.147 1.147 0 0 0-.798.634l-.003.007a1.578 1.578 0 0 0-.147.639v4.287h.307zM43.921 23.53a.404.404 0 0 0-.002.8h.002a.397.397 0 0 0 .397-.397v-.013a.39.39 0 0 0-.391-.391h-.007zm19.738 0a.4.4 0 1 0 0 .8h.006a.397.397 0 0 0 .397-.397v-.007-.007a.39.39 0 0 0-.391-.391h-.014.001z"/></svg>
