<svg xmlns="http://www.w3.org/2000/svg" viewBox="0 0 512 512"><path d="M149.3 216v80a24 24 0 0 1-24 24H24a24 24 0 0 1-24-24v-80a24 24 0 0 1 24-24h101.3a24 24 0 0 1 24 24zM0 376v80a24 24 0 0 0 24 24h101.3a24 24 0 0 0 24-24v-80a24 24 0 0 0-24-24H24a24 24 0 0 0-24 24zM125.3 32H24A24 24 0 0 0 0 56v80a24 24 0 0 0 24 24h101.3a24 24 0 0 0 24-24V56a24 24 0 0 0-24-24zm80 448H488a24 24 0 0 0 24-24v-80a24 24 0 0 0-24-24H205.3a24 24 0 0 0-24 24v80a24 24 0 0 0 24 24zm-24-424v80a24 24 0 0 0 24 24H488a24 24 0 0 0 24-24V56a24 24 0 0 0-24-24H205.3a24 24 0 0 0-24 24zm24 264H488a24 24 0 0 0 24-24v-80a24 24 0 0 0-24-24H205.3a24 24 0 0 0-24 24v80a24 24 0 0 0 24 24z"/></svg>
