<svg xmlns="http://www.w3.org/2000/svg" viewBox="0 0 512 512"><path d="M149.3 56v80a24 24 0 0 1-24 24H24a24 24 0 0 1-24-24V56a24 24 0 0 1 24-24h101.3a24 24 0 0 1 24 24zm181.4 240v-80a24 24 0 0 0-24-24H205.3a24 24 0 0 0-24 24v80a24 24 0 0 0 24 24h101.4a24 24 0 0 0 24-24zm32-240v80a24 24 0 0 0 24 24H488a24 24 0 0 0 24-24V56a24 24 0 0 0-24-24H386.7a24 24 0 0 0-24 24zm-32 80V56a24 24 0 0 0-24-24H205.3a24 24 0 0 0-24 24v80a24 24 0 0 0 24 24h101.4a24 24 0 0 0 24-24zm-205.4 56H24a24 24 0 0 0-24 24v80a24 24 0 0 0 24 24h101.3a24 24 0 0 0 24-24v-80a24 24 0 0 0-24-24zM0 376v80a24 24 0 0 0 24 24h101.3a24 24 0 0 0 24-24v-80a24 24 0 0 0-24-24H24a24 24 0 0 0-24 24zm386.7-56H488a24 24 0 0 0 24-24v-80a24 24 0 0 0-24-24H386.7a24 24 0 0 0-24 24v80a24 24 0 0 0 24 24zm0 160H488a24 24 0 0 0 24-24v-80a24 24 0 0 0-24-24H386.7a24 24 0 0 0-24 24v80a24 24 0 0 0 24 24zM181.3 376v80a24 24 0 0 0 24 24h101.4a24 24 0 0 0 24-24v-80a24 24 0 0 0-24-24H205.3a24 24 0 0 0-24 24z"/></svg>
