<svg xmlns="http://www.w3.org/2000/svg" viewBox="0 0 56.69 56.69"><path d="M54.08 15.55a20.14 20.14 0 0 1-5.8 1.59 10.13 10.13 0 0 0 4.44-5.6A20.23 20.23 0 0 1 46.3 14a10.1 10.1 0 0 0-7.37-3.19 10.1 10.1 0 0 0-9.85 12.41A28.68 28.68 0 0 1 8.25 12.66a10.06 10.06 0 0 0-1.37 5.08c0 3.5 1.79 6.6 4.5 8.41A10.07 10.07 0 0 1 6.8 24.9v.13c0 4.9 3.48 8.98 8.1 9.9a10.14 10.14 0 0 1-4.56.18 10.12 10.12 0 0 0 9.44 7.02 20.28 20.28 0 0 1-12.55 4.33c-.82 0-1.62-.05-2.41-.14a28.6 28.6 0 0 0 15.5 4.54c18.58 0 28.75-15.4 28.75-28.76 0-.44-.01-.88-.03-1.3a20.52 20.52 0 0 0 5.04-5.24z"/></svg>
