<svg width="24" height="24" viewBox="0 0 24 24" fill="none" xmlns="http://www.w3.org/2000/svg">
<g clip-path="url(#clip0_311_330)">
<path d="M23.4688 5.92901L23.4988 6.12501C23.2088 5.09601 22.4258 4.30201 21.4308 4.01301L21.4098 4.00801C19.5388 3.50001 12.0098 3.50001 12.0098 3.50001C12.0098 3.50001 4.49981 3.49001 2.60981 4.00801C1.59581 4.30201 0.811806 5.09601 0.526806 6.10401L0.521806 6.12501C-0.177194 9.77601 -0.182194 14.163 0.552806 18.072L0.521806 17.874C0.811806 18.903 1.59481 19.697 2.58981 19.986L2.61081 19.991C4.47981 20.5 12.0108 20.5 12.0108 20.5C12.0108 20.5 19.5198 20.5 21.4108 19.991C22.4258 19.697 23.2098 18.903 23.4948 17.895L23.4998 17.874C23.8178 16.176 23.9998 14.222 23.9998 12.226C23.9998 12.153 23.9998 12.079 23.9988 12.005C23.9998 11.937 23.9998 11.856 23.9998 11.775C23.9998 9.77801 23.8178 7.82401 23.4688 5.92901ZM9.60781 15.651V8.35801L15.8738 12.01L9.60781 15.651Z" fill="white"/>
</g>
<defs>
<clipPath id="clip0_311_330">
<rect width="24" height="24" fill="white"/>
</clipPath>
</defs>
</svg>
